<?xml version="1.0" standalone="no"?>
<!DOCTYPE svg PUBLIC "-//W3C//DTD SVG 20010904//EN"
 "http://www.w3.org/TR/2001/REC-SVG-20010904/DTD/svg10.dtd">
<svg version="1.0" xmlns="http://www.w3.org/2000/svg"
 width="757.000000pt" height="757.000000pt" viewBox="0 0 757.000000 757.000000"
 preserveAspectRatio="xMidYMid meet">
<metadata>
Created by potrace 1.11, written by Peter Selinger 2001-2013
</metadata>
<g transform="translate(0.000000,757.000000) scale(0.100000,-0.100000)"
fill="#000000" stroke="none">
<path d="M4614 7561 c-130 -21 -250 -84 -340 -180 -49 -51 -133 -169 -231
-322 -55 -84 -148 -219 -207 -299 -243 -324 -455 -671 -705 -1152 l-93 -178
-28 15 c-16 8 -37 15 -47 15 -36 0 -43 18 -68 166 -73 446 -241 871 -423 1066
-62 68 -179 143 -259 168 -88 27 -210 27 -288 0 -132 -45 -247 -154 -321 -305
-82 -166 -105 -323 -85 -570 20 -242 -10 -477 -94 -730 -23 -71 -89 -238 -145
-370 -116 -272 -179 -452 -211 -605 -19 -89 -23 -137 -23 -315 l-1 -210 -125
-1 c-142 0 -224 -17 -335 -69 -322 -148 -494 -518 -445 -956 27 -252 130 -570
277 -863 300 -598 632 -1011 1158 -1441 472 -386 845 -502 1202 -373 300 108
531 417 560 746 3 39 9 72 12 72 63 2 351 90 546 167 228 90 390 178 550 298
l74 56 47 -20 c76 -34 153 -51 260 -58 285 -17 553 91 884 358 58 46 266 223
463 392 356 308 438 389 536 533 160 238 184 519 65 762 -62 127 -187 228
-329 267 -33 9 -67 19 -74 21 -8 3 36 29 97 59 192 93 404 224 623 386 58 44
111 79 117 79 22 0 126 128 158 194 51 105 68 198 61 330 -10 223 -99 405
-321 663 -162 188 -284 283 -414 323 -191 59 -447 20 -717 -109 -238 -114
-585 -325 -784 -478 -45 -35 -84 -63 -85 -61 -2 2 138 309 310 683 297 646
442 981 464 1077 5 24 10 75 10 115 0 148 -57 233 -236 349 -141 91 -135 88
-367 184 -272 111 -312 121 -482 125 -77 2 -163 0 -191 -4z m361 -346 c68 -18
166 -61 219 -98 l36 -24 -122 5 c-95 3 -138 0 -188 -13 -207 -54 -421 -215
-585 -442 -33 -45 -61 -81 -62 -79 -7 7 71 215 109 290 102 203 235 332 375
365 60 14 154 12 218 -4z m-2782 -752 c53 -40 113 -124 163 -228 53 -109 76
-197 77 -287 1 -58 -2 -71 -23 -93 -13 -14 -32 -25 -42 -25 -83 0 -216 176
-284 375 -35 103 -40 231 -10 264 27 30 74 27 119 -6z m320 -733 c70 -56 53
-186 -28 -206 -36 -9 -87 24 -103 68 -40 104 52 200 131 138z m4028 -386 c76
-22 139 -65 212 -144 55 -59 139 -190 123 -190 -3 0 -27 16 -53 37 -104 79
-225 120 -378 129 -172 10 -396 -41 -575 -131 -40 -20 -74 -34 -76 -32 -7 6
110 112 190 172 202 151 395 206 557 159z m-5381 -1790 c0 -40 61 -289 100
-406 84 -256 165 -404 354 -653 96 -127 221 -265 240 -265 6 -1 43 -42 82 -93
130 -168 210 -290 233 -357 33 -94 121 -259 187 -351 74 -102 231 -254 328
-317 97 -64 208 -110 319 -133 49 -10 92 -21 95 -24 16 -15 14 -223 -2 -286
-60 -235 -230 -405 -466 -465 -89 -22 -259 -15 -350 16 -104 34 -252 113 -405
214 -449 298 -797 684 -1163 1292 -269 447 -386 771 -399 1099 -7 180 5 267
51 362 87 178 302 322 544 363 57 9 252 12 252 4z m5118 -198 c78 -36 136 -99
157 -169 8 -28 13 -52 10 -55 -2 -3 -20 9 -40 27 -64 56 -169 99 -293 121
-101 18 -349 13 -501 -10 -74 -11 -136 -18 -138 -16 -5 5 121 50 212 76 177
50 244 60 390 57 131 -2 144 -4 203 -31z"/>
</g>
</svg>
