<?xml version="1.0" encoding="utf-8"?>
<!-- Generator: Adobe Illustrator 22.0.0, SVG Export Plug-In . SVG Version: 6.00 Build 0)  -->
<svg version="1.1" xmlns="http://www.w3.org/2000/svg" xmlns:xlink="http://www.w3.org/1999/xlink" x="0px" y="0px"
	 viewBox="0 0 350 350" style="enable-background:new 0 0 350 350;" xml:space="preserve">
<style type="text/css">
	.st0{fill:#FFFFFF;}
</style>
<g id="Layer_2">
</g>
<g id="Layer_1">
	<g>
		<path class="st0" d="M68.7,296.5h-6.4v21.8h-6.4v-21.8h-6.4v-6.1h12.8h6.4V296.5z"/>
		<path class="st0" d="M85.1,313.9h-9.8l-1.3,4.4h-7l9.1-27.9h8.1l9.1,27.9h-7L85.1,313.9z M83.4,307.9l-3.1-10.6l-3.1,10.6H83.4z"
			/>
		<path class="st0" d="M111.3,291.7c1.5,0.9,2.7,2,3.5,3.5c0.9,1.5,1.3,3.1,1.3,4.8s-0.4,3.4-1.3,4.8c-0.9,1.5-2,2.6-3.5,3.5
			c-1.5,0.9-3.1,1.3-4.9,1.3h-4.2v8.8h-6.4v-27.9h6.4h4.2C108.2,290.4,109.8,290.8,111.3,291.7z M108.8,302.5c0.6-0.7,1-1.5,1-2.6
			s-0.3-1.9-1-2.6c-0.6-0.7-1.4-1-2.4-1h-4.2v7.2h4.2C107.3,303.6,108.2,303.2,108.8,302.5z"/>
		<path class="st0" d="M146.4,296.5h-6.4v21.8h-6.4v-21.8h-6.4v-6.1h12.8h6.4V296.5z"/>
		<path class="st0" d="M153.7,317c-2.2-1.3-4-3-5.3-5.2c-1.3-2.2-2-4.7-2-7.4c0-2.7,0.7-5.1,2-7.4c1.3-2.2,3.1-4,5.3-5.2
			c2.2-1.3,4.6-1.9,7.3-1.9c2.6,0,5.1,0.6,7.3,1.9c2.2,1.3,4,3,5.3,5.2c1.3,2.2,2,4.7,2,7.4c0,2.7-0.7,5.1-2,7.4
			c-1.3,2.2-3.1,4-5.3,5.2c-2.2,1.3-4.6,1.9-7.3,1.9C158.3,318.9,155.9,318.2,153.7,317z M165.1,311.6c1.2-0.7,2.2-1.7,2.9-2.9
			c0.7-1.3,1.1-2.7,1.1-4.3s-0.4-3.1-1.1-4.3c-0.7-1.3-1.7-2.2-2.9-2.9c-1.2-0.7-2.6-1-4.1-1c-1.5,0-2.9,0.3-4.1,1
			c-1.2,0.7-2.2,1.7-2.9,2.9c-0.7,1.3-1.1,2.7-1.1,4.3s0.4,3.1,1.1,4.3c0.7,1.3,1.7,2.2,2.9,2.9c1.2,0.7,2.6,1,4.1,1
			C162.5,312.6,163.8,312.3,165.1,311.6z"/>
		<path class="st0" d="M204.5,291.7c1.5,0.9,2.7,2,3.5,3.5c0.9,1.5,1.3,3.1,1.3,4.8s-0.4,3.4-1.3,4.8c-0.9,1.5-2,2.6-3.5,3.5
			c-1.5,0.9-3.1,1.3-4.9,1.3h-4.2v8.8H189v-27.9h6.4h4.2C201.4,290.4,203,290.8,204.5,291.7z M202,302.5c0.6-0.7,1-1.5,1-2.6
			s-0.3-1.9-1-2.6c-0.6-0.7-1.4-1-2.4-1h-4.2v7.2h4.2C200.6,303.6,201.4,303.2,202,302.5z"/>
		<path class="st0" d="M228.5,312.2v6.1h-15.9v-27.9h6.4v21.8H228.5z"/>
		<path class="st0" d="M247,313.9h-9.8l-1.3,4.4h-7l9.1-27.9h8.1l9.1,27.9h-7L247,313.9z M245.2,307.9l-3.1-10.6l-3.1,10.6H245.2z"
			/>
		<path class="st0" d="M262.1,317c-2.2-1.3-3.9-3-5.2-5.2c-1.2-2.2-1.9-4.7-1.9-7.4c0-2.7,0.6-5.2,1.9-7.4c1.3-2.2,3-3.9,5.2-5.2
			c2.2-1.3,4.7-1.9,7.5-1.9c2.2,0,4.3,0.5,6.3,1.4c1.9,0.9,3.6,2.2,4.9,3.9c1.3,1.7,2.2,3.5,2.6,5.6h-6.7c-0.4-1.4-1.3-2.6-2.6-3.4
			c-1.3-0.9-2.8-1.3-4.5-1.3c-2.5,0-4.4,0.8-5.9,2.3c-1.5,1.5-2.2,3.5-2.2,6s0.7,4.5,2.2,6c1.5,1.5,3.4,2.3,5.9,2.3
			c1.7,0,3.2-0.4,4.5-1.3c1.3-0.8,2.1-2,2.6-3.4h6.7c-0.4,2.1-1.2,4-2.5,5.6c-1.3,1.7-2.9,3-4.9,3.9s-4,1.4-6.3,1.4
			C266.8,318.9,264.3,318.2,262.1,317z"/>
		<path class="st0" d="M302.7,312.2v6.1H288h-2v-27.9h6.4h10.2v6.1h-10.2v4.7h9.2v6h-9.2v5H302.7z"/>
	</g>
	<g>
		<path class="st0" d="M301.5,344.1H51.6c-24.3,0-44.1-19.8-44.1-44.1V50.1c0-24.3,19.8-44.1,44.1-44.1h249.8
			c24.3,0,44.1,19.8,44.1,44.1v249.8C345.6,324.3,325.8,344.1,301.5,344.1z M51.6,18.3c-17.5,0-31.8,14.3-31.8,31.8v249.8
			c0,17.5,14.3,31.8,31.8,31.8h249.8c17.5,0,31.8-14.3,31.8-31.8V50.1c0-17.5-14.3-31.8-31.8-31.8H51.6z"/>
	</g>
</g>
</svg>
