<?xml version="1.0" encoding="utf-8"?>
<!-- Generator: Adobe Illustrator 22.0.0, SVG Export Plug-In . SVG Version: 6.00 Build 0)  -->
<svg version="1.1" id="Layer_1" xmlns="http://www.w3.org/2000/svg" xmlns:xlink="http://www.w3.org/1999/xlink" x="0px" y="0px"
	 viewBox="0 0 300 300" style="enable-background:new 0 0 300 300;" xml:space="preserve">
<style type="text/css">
	.st0{fill:#ED453A;}
	.st1{opacity:0.25;}
	.st2{opacity:0.26;}
	.st3{fill:#FFFFFF;}
</style>
<rect x="2.2" y="122.3" transform="matrix(0.7071 0.7071 -0.7071 0.7071 149.7355 -63.0006)" class="st0" width="297.4" height="53.8"/>
<rect x="2.2" y="122.3" transform="matrix(-0.7071 0.7071 -0.7071 -0.7071 363.1632 148.0656)" class="st0" width="297.4" height="53.8"/>
<g>
	<g>
		<path d="M61,30.1C75.9,45,91.3,59.4,106.6,73.9c7.1,6.8,14.3,13.5,21.3,20.3c3.4,3.3,6.8,6.7,10.1,10.2c3.2,3.5,6,7.5,9.5,10.7
			c4.5,4.2,11.3-1.1,8.5-6.5c-4.2-8.1-12.1-15-18.6-21.3c-7.2-7.1-14.6-14-21.9-20.9C99.9,51.7,84.6,36.8,68.7,22.4
			C63.5,17.7,55.9,25.1,61,30.1L61,30.1z"/>
	</g>
</g>
<g>
	<g>
		<path d="M234.3,21.9c-8.3,6.2-15.2,14.5-22.3,22c-7.3,7.7-14.5,15.3-22.4,22.4c-7.3,6.6-14.9,13-21.7,20.2
			c-6.4,6.8-12.3,15.1-20.1,20.4c-5.2,3.5-0.6,11.8,5,8.6c8.4-4.9,14.4-11.3,20.9-18.4c7-7.7,14.8-14.5,22.6-21.4
			c7.9-7,15.1-14.6,22.3-22.3c7.5-8,16-15.8,22-25C243.1,24.5,238,19,234.3,21.9L234.3,21.9z"/>
	</g>
</g>
<g>
	<g>
		<path d="M235.5,31.6c4.4,7.2,9.8,13.8,16.1,19.5c3,2.7,6.2,5.2,9.5,7.6c3.5,2.5,6.9,6,10.8,7.8c1.4,0.6,3.3,1,4.6,0
			c8.5-6.5-11.8-18.1-15.5-21.4c-6.7-5.8-12.7-12.3-18.2-19.2C239.5,21.7,232.8,27.1,235.5,31.6L235.5,31.6z"/>
	</g>
</g>
<g>
	<g>
		<path d="M273,62.2c0.1,0.2,0.2,0.3,0.3,0.5c0.4,0.6,1.5,0.3,1.3-0.5c-0.1-0.2-0.2-0.4-0.3-0.6C273.8,60.7,272.5,61.4,273,62.2
			L273,62.2z"/>
	</g>
</g>
<g>
	<g>
		<path d="M274.7,62.1c0.2,0,0.2-0.3,0-0.3C274.4,61.8,274.4,62.1,274.7,62.1L274.7,62.1z"/>
	</g>
</g>
<g>
	<g>
		<path d="M275.1,57c-8.7,5.9-16.3,13.4-23.9,20.6c-7.8,7.4-15.6,14.9-23.1,22.6c-7.2,7.4-14,15.2-21.4,22.4
			c-7.8,7.6-16.4,14.4-24.4,21.7c-4.8,4.4,1.8,13.2,7,9.1c8.3-6.4,16.6-12.9,24.2-20.1c7.7-7.3,14.6-15.5,21.8-23.3
			c7.1-7.7,14.3-15.3,21.7-22.7c7.8-7.8,16.3-15.2,23.4-23.6C283.3,60.2,279.5,54,275.1,57L275.1,57z"/>
	</g>
</g>
<g>
	<g>
		<path d="M183.9,150.4c3.5,7.8,11.7,13.2,18.1,18.4c7.5,6.2,14.3,13.2,21,20.2c7.1,7.4,14,14.8,20.9,22.3
			c3.4,3.8,6.9,7.5,10.4,11.3c3.3,3.7,6.2,8.2,11.6,8.1c2.8-0.1,4.5-2.2,4.8-4.8c0.6-4.9-3.6-8.3-6.7-11.6
			c-3.4-3.8-6.8-7.6-10.3-11.3c-6.9-7.5-14-14.9-21.1-22.2c-6.6-6.8-13.2-13.5-20.9-19.1c-3.5-2.6-7.3-5.1-10.8-7.8
			c-3.6-2.8-6.6-6-10-8.9C187,141.6,181.9,145.7,183.9,150.4L183.9,150.4z"/>
	</g>
</g>
<g>
	<g>
		<path d="M259.3,224.2c0.3,3.3,2.4,5.6,4.3,8.1c1.9,2.6,3.9,5.1,6,7.5c4.3,5,11.6-2.3,7.2-7.2c-2-2.2-4-4.3-6-6.4
			c-2-2.1-3.9-4.7-6.9-5.5C261.9,220,259.1,221.8,259.3,224.2L259.3,224.2z"/>
	</g>
</g>
<g>
	<g>
		<path d="M256.5,222.9c1.4,2.6,3.7,4.9,5.6,7.1c0.9,1.1,1.9,2.1,2.8,3.2c0.5,0.5,1.5,1.3,1.7,2c1.1,3.1,4.2,5.2,7.5,4.3
			c3.1-0.9,5.3-4.4,4.3-7.5c-1.2-3.8-3.9-6.5-6.8-9.2c-2.9-2.7-6.1-5.4-9.8-6.9C257.8,214.2,254.7,219.6,256.5,222.9L256.5,222.9z"
			/>
	</g>
</g>
<g>
	<g>
		<path d="M275.4,233.6c0.1,0,0.1-0.2,0-0.2C275.3,233.4,275.3,233.6,275.4,233.6L275.4,233.6z"/>
	</g>
</g>
<g>
	<g>
		<path d="M276.5,229.7c-4.6-0.5-9.3,3.4-12.4,6.4c-3.8,3.6-7.2,7.5-10.9,11.2c-3.7,3.7-7.5,7.2-11.5,10.6
			c-4.1,3.4-10.4,6.2-11.7,11.7c-0.9,3.9,1.8,6.8,5.5,7.2c5.3,0.6,10-4.4,13.9-7.6c4.2-3.5,8.3-7.1,12.1-11.1
			c3.4-3.6,6.5-7.6,9.7-11.3c3.1-3.5,7.9-7.2,9.2-11.8C281.3,232.1,279.1,229.9,276.5,229.7L276.5,229.7z"/>
	</g>
</g>
<g>
	<g>
		<path d="M147.1,189c2.7,3.7,6.3,6.4,9.5,9.7c3.3,3.4,6.3,7,9.3,10.7c5.9,7.5,11.5,15.2,17.4,22.7c12.6,15.9,28.4,28.6,42.3,43.2
			c5.2,5.5,13.3-2.7,8.3-8.3c-13.5-15-29.5-27.5-42.3-43.2c-5.8-7.1-11.4-14.5-17.4-21.5c-3.1-3.6-6.3-7-9.7-10.3
			c-3.3-3.2-7-7.2-11.3-9C149.6,181.6,144.2,185.1,147.1,189L147.1,189z"/>
	</g>
</g>
<g>
	<g>
		<path d="M232.8,267.3c-2.9-8.5-11.1-14.4-17.8-19.9c-7.2-5.9-13.4-12.4-19.5-19.4c-13.3-15.2-26.4-30.6-40.3-45.3
			c-5.4-5.7-13.3,2.6-8.4,8.4c12.7,15.2,26.3,29.9,39.5,44.7c6.2,6.9,12.4,13.4,19.7,19.1c6.8,5.3,13.7,12.8,21.7,16.3
			C230.3,272.2,233.9,270.4,232.8,267.3L232.8,267.3z"/>
	</g>
</g>
<g>
	<g>
		<path d="M230.8,275c0-0.1-0.1-0.4-0.1-0.2c0,0,0-0.1,0-0.1c0-0.2,0-0.2,0,0c-0.3,0.3-0.5,0.7-0.8,1c0.3-0.2,0.5-0.3,0.8-0.5
			c0.5-0.6,0.8-1.3,0.6-2.1c-0.2-0.7-0.8-1.3-1.5-1.5c-1.6-0.4-3.1,1.1-2.7,2.7c0.2,0.7,0.6,1.1,1.2,1.5c-0.2-0.2-0.4-0.4-0.6-0.6
			c-0.2-0.3,0.1,0.2,0.1,0.3c0.1,0.1,0.1,0.2,0.2,0.3c0.2,0.3,0.4,0.5,0.6,0.7C229.5,277.4,231.3,276.4,230.8,275L230.8,275z"/>
	</g>
</g>
<g>
	<g>
		<path d="M147.2,183.1c-15,13.4-28.7,28.4-42.9,42.7c-7.3,7.4-14.6,14.7-21.9,22c-3.7,3.7-7.4,7.3-11,11
			c-3.5,3.6-8.4,7.3-10.5,11.9c-1.5,3.4,1.1,9.2,5.6,7.3c4.8-2,8.2-5.9,12-9.4c4-3.8,7.9-7.7,11.8-11.5c8.1-7.9,16.1-15.9,24-24
			c7.7-7.9,15.4-15.7,22.9-23.8c3.6-3.9,7.2-7.8,10.6-11.9c2.7-3.2,7-6.8,6.9-11.2C154.7,182.3,150.1,180.6,147.2,183.1L147.2,183.1
			z"/>
	</g>
</g>
<g>
	<g>
		<path d="M32.7,238c-0.6-0.2-1.3-0.7-1.9-0.7c-0.3,0-0.3,0.3-0.1,0.5c0.5,0.4,1.3,0.5,1.9,0.6C32.9,238.5,33,238.1,32.7,238
			L32.7,238z"/>
	</g>
</g>
<g>
	<g>
		<path d="M24.5,239.6c4.9,7.1,10.4,13.5,16.4,19.8c5.4,5.7,12.1,13.5,19.5,16.3c4.8,1.8,9-4.5,6.5-8.5c-2.2-3.5-5.6-5.9-8.7-8.6
			c-2.9-2.6-5.8-5.2-8.6-7.9c-5.9-5.5-11.5-11.4-17.2-17.2C28.4,229.6,21.1,234.9,24.5,239.6L24.5,239.6z"/>
	</g>
</g>
<g>
	<g>
		<path d="M110.6,144.2c-16.7,13.2-31.1,29.2-47,43.4c-15.2,13.5-31.7,26.2-45.1,41.5c-6.1,7,3.7,17.1,10.3,10.3
			c29.3-29.7,63.5-54.6,89.2-87.8C122.2,146.3,116,139.9,110.6,144.2L110.6,144.2z"/>
	</g>
</g>
<g>
	<g>
		<path d="M18.3,239.4c3.7,3,7.5,5.9,11.2,8.9c2,1.6,4.7,2,6.7,0c1.7-1.7,2-5.1,0-6.7c-4-3.2-8.1-6.5-12.2-9.6
			C19.8,228.7,14.1,236,18.3,239.4L18.3,239.4z"/>
	</g>
</g>
<g>
	<g>
		<path d="M24.8,66.6c0.1,0,0.2,0,0.3,0c-1.4-0.8-2.8-1.6-4.2-2.4c2.3,3.2,6,5.4,8.6,8.4c3.2,3.7,6.1,7.7,9.2,11.4
			c6.8,8.2,15.5,14.4,23,21.8c7.5,7.3,13.8,15.7,21.4,23c7.4,7.1,14.6,14,20.8,22.2c4.7,6.2,14.9,0.9,10.8-6.3
			c-4.9-8.8-13-15.8-20.3-22.6c-8-7.6-14.9-16.2-22.6-24c-7.5-7.6-16.4-13.6-23.5-21.5c-3.3-3.6-6.2-7.5-9.4-11.2
			c-2.9-3.2-7.2-8.3-11.7-9c-2.4-0.4-4.9,0.3-6.2,2.5c-0.1,0.1-0.1,0.2-0.2,0.3c-0.9,1.5-0.9,3.5,0,4.9
			C21.8,65.7,23.1,66.5,24.8,66.6L24.8,66.6z"/>
	</g>
</g>
<g>
	<g>
		<path d="M61.1,21.3c-4.2,1.3-7.7,4.4-11.1,7.1c-3.9,3.1-7.7,6.3-11.1,9.9c-6.2,6.4-13.8,14.2-17,22.6c-1.9,5,5.2,8.5,8.6,5
			c3.1-3.1,5.2-7.1,7.9-10.6c2.7-3.5,5.6-6.8,8.7-10c3.1-3.2,6.2-6.3,9.5-9.1c3.2-2.8,6.8-5,9.4-8.4C68.4,24.7,64.5,20.3,61.1,21.3
			L61.1,21.3z"/>
	</g>
</g>
<g>
	<g>
		<path d="M277.7,56.4c-4.3-3.2-9.4-5.4-13.7-8.7c-3.7-2.8-7.8,2.5-5.9,5.9c1.3,2.5,4.6,3.8,7,5.1c2.8,1.6,5.6,3.3,8.5,4.6
			C278.4,65.5,281.9,59.5,277.7,56.4L277.7,56.4z"/>
	</g>
</g>
<g>
	<g>
		<path d="M280.1,57.6c-4-5.2-10.8-8.5-16.2-12.2c-4.2-3-10.7-10.3-16.3-8.4c-1.2,0.4-1.8,1.3-1.9,2.5c-0.5,5.9,8,9.8,12.1,12.7
			c5.2,3.7,11.7,9.5,18.1,10.8C278.7,63.7,282.3,60.4,280.1,57.6L280.1,57.6z"/>
	</g>
</g>
<g>
	<g>
		<path d="M116.4,147c-0.3-2.4-1.9-3.5-3.7-4.9c-0.8-0.6-1.7-1.2-2.5-1.9c-1.3-1-2.1-1.5-3.7-1.7c-2.4-0.3-3.8,2.8-2.7,4.7
			c1.7,2.9,5.8,3.2,8.1,5.7C113.3,150.5,116.7,149.3,116.4,147L116.4,147z"/>
	</g>
</g>
<g>
	<g>
		<path d="M116.7,146.1c0-0.1,0-0.1,0-0.2c0.2-1.8-0.2-2.9-1.6-4c-1.4-1.1-2.7-2.4-4.1-3.5c-1.8-1.4-3.5-3.2-6-3.1
			c-2.5,0.2-4.6,2.4-3.8,5c1.3,4.1,6.9,5.6,10.3,7.7c1.1,0.7,2.5,0.6,3.6,0C115.8,147.6,116.6,147,116.7,146.1L116.7,146.1z"/>
	</g>
</g>
<g>
	<g>
		<path d="M183.3,151.7c0.1,2.2,1.7,3.1,3.3,4.3c1.2,0.9,2.5,1.9,3.9,2.4c3.1,1,5.4-3.2,3.1-5.4c-1.1-1-2.4-1.7-3.7-2.4
			c-1.5-1-2.7-2-4.6-1.6C184.2,149.2,183.2,150.5,183.3,151.7L183.3,151.7z"/>
	</g>
</g>
<g>
	<g>
		<path d="M225.8,265.1c0.7,0.6,1.4,1.3,2.1,2c0.8,0.9,1,1.4,1.9,2.3c2.2,2.3,6.2-0.7,4.4-3.4c-1.3-2-3.4-3.5-5.4-4.8
			C226.5,259.6,223.6,263.2,225.8,265.1L225.8,265.1z"/>
	</g>
</g>
<g>
	<g>
		<path d="M235.8,276.8c0.1,0,0.2-0.1,0.4-0.1c-0.3,0-0.5,0.1-0.8,0.1c0.1,0,0.1,0,0.2,0c-0.7-0.3-1.4-0.6-2.1-0.9
			c0.5,0.4,0.9,0.7,1.6,0.9c0.7,0.2,1.3,0.1,2-0.1c1.5-0.4,2.8-1.9,2.7-3.5c-2,0.5-3.9,1.1-5.9,1.6c0,0,0,0.1,0,0.1
			c-0.1-0.2-0.2-0.5-0.3-0.7c0,0.1,0,0.1,0.1,0.2c0-0.3-0.1-0.5-0.1-0.8c0.1,0.6,0.1,1.1,0.4,1.7c0-0.8,0-1.7,0-2.5
			c0,0.1-0.1,0.1-0.1,0.2c0.3-0.3,0.6-0.6,0.9-0.9c0,0-0.1,0-0.1,0.1c0.4-0.1,0.8-0.2,1.2-0.3c0,0-0.1,0-0.1,0c-1,0-1.9,0.6-2.2,1.5
			c-0.3,0.8-0.2,2,0.5,2.7c0.6,0.5,1.2,0.9,2.1,0.9c0.6,0,1.1-0.1,1.6-0.4c-0.7,0-1.5,0-2.2,0c-0.1-0.1-0.2-0.2-0.3-0.2
			c0.7-0.2,1.3-0.4,2-0.5c0,0,0,0,0,0c-0.2,0.2-0.3,0.4-0.5,0.7c0.2-0.1,0.3-0.2,0.4-0.3c0.3-0.3,0,0,0,0c0.8-0.5,0.9-1.7,0.1-2.3
			c-0.8-0.6-1.8-0.2-2.2,0.7c-0.2,0.6-0.2,1.3,0.3,1.7c-0.1-0.2-0.2-0.3-0.3-0.5c0.3,1.5,2.4,1.4,3.2,0.4c0.5-0.6,0.9-1.4,0.6-2.1
			c-0.3-0.7-0.6-1.2-1.2-1.7c-0.5-0.3-1.1-0.5-1.8-0.5c0.6,1.4,1.1,2.8,1.7,4.1c-0.1,0.1-0.2,0.2-0.3,0.2c-0.4,0.1-0.8,0.2-1.2,0.3
			c0.3,0,0.6-0.1,0.9-0.1c-0.6-0.1-1.3-0.2-1.9-0.3c0.9,0.4,1.7,0.5,2.6,0.1c0.5-0.2,0.9-0.5,1.3-0.9c0.7-0.7,1-1.7,0.9-2.6
			c-0.1-1-0.7-1.7-1.5-2.3c-1.3-0.9-3.3-0.6-4.4,0.6c-1,1.1-1.3,2.1-1.1,3.6c0.1-0.8,0.2-1.5,0.3-2.3c0.3-0.4,0.3-0.4,0.1-0.2
			c-0.8,0.9-1.1,2.4-0.4,3.4C233.3,276.6,234.6,277.2,235.8,276.8L235.8,276.8z"/>
	</g>
</g>
<g>
	<g>
		<path d="M65.9,272.3c-0.6-0.5-1.2-0.9-1.8-1.4c-0.7-0.5-1.4-1.2-2.1-1.6c-1.7-0.9-3.7,0-4,2c-0.3,1.9,1.5,3.5,3.4,3
			c0.1,0,0.2-0.1,0.3-0.1c-0.6-0.2-1.2-0.3-1.8-0.5c0.7,0.7,1.3,1.3,2,2c0.4-1,0.8-2,1.2-2.9c-0.1,0-0.4-0.1-0.6-0.2
			c0.4,0.5,0.8,1.1,1.2,1.6c0-0.2,0-0.4,0-0.5c-0.1,0.4-0.2,0.8-0.3,1.2c0.6-1,0.4-1.9-0.1-2.9c-1.4,1.1-2.7,2.1-4.1,3.2
			c0.4,0.3,0.7,0.7,1.1,1c0.6,0.5,1.2,0.6,2,0.7c1.6,0.2,2.6-1.7,2.3-3c-0.2-1-1-1.7-1.7-2.3c-1-0.9-2.7-1.1-3.7,0
			c-0.9,1-1.1,2.7,0,3.7c0.1,0,0.1,0.1,0.2,0.1c0.6,0.6,1.7,1,2.5,0.7c0.2-0.1,0.4-0.1,0.6-0.2c-0.4-0.1-0.9-0.1-1.3-0.2
			c0.4,0.3,0.9,0.4,1.4,0.5c0.7,0.1,1.4,0,1.8-0.6c0.4-0.5,0.6-1.4,0.1-1.9c-0.6-0.7-1.1-1.5-1.7-2.2c0,0.6,0,1.3,0,1.9
			c0.1-0.1,0.1-0.2,0.2-0.3c-1.4,0.2-2.8,0.4-4.2,0.5c1.2,1.1,2.7,1.9,4.1,2.7c1.1,0.7,2.5,0.3,3.3-0.7
			C66.8,274.7,66.9,273.1,65.9,272.3L65.9,272.3z"/>
	</g>
</g>
<g>
	<g>
		<path d="M62,272.8c-0.1,0-0.1-0.1-0.2-0.1c-0.6-0.5-1.3-0.5-1.9,0c-0.1,0-0.1,0.1-0.2,0.1c-1,0.9-0.2,2.7,1.1,2.6
			C62.2,275.4,63.1,273.7,62,272.8L62,272.8z"/>
	</g>
</g>
<g>
	<g>
		<path d="M59.5,274.1c0.1,0.1,0.2,0.2,0.3,0.3c0.2,0.2,0-0.1,0.1,0.2c0.2,0.4,0.4,0.7,0.7,1c0.6,0.7,1.9,0.7,2.5,0
			c0.7-0.8,0.6-1.7,0-2.5c-0.6-0.8-1.8-1-2.8-1c-0.5,0-0.9,0.3-1.1,0.7C59.1,273.2,59.1,273.8,59.5,274.1L59.5,274.1z"/>
	</g>
</g>
<g>
	<g>
		<path d="M60.6,275.3c0.3,0,0.6,0,0.9-0.1c0.8-0.1,1.5-0.5,1.8-1.2c0.3-0.7,0.2-1.7-0.4-2.2c-0.2-0.2-0.4-0.4-0.7-0.6
			c-1.3-1.1-3.2-0.8-3.9,0.8C57.8,273.5,58.9,275.5,60.6,275.3L60.6,275.3z"/>
	</g>
</g>
<path class="st1" d="M152.8,184.1c0,0,37.9,38.8,53.5,49.3s19.7,14.1,28.1,14.1c8.4,0,22.9-9.4,27.2-12.2s8.7-5.4,8.7-5.4l5.1,7.8
	l-42.6,33.6l-81.6-83L152.8,184.1z"/>
<path class="st2" d="M31.7,224.2c0,0,13,15.1,20.6,19c7.7,3.9,13.3,5.8,22.6,2.3s73.2-62,72.7-62.6s0,8.2,0,8.2l-82.9,82.4
	l-41.1-39.2L31.7,224.2z"/>
<path class="st1" d="M184.8,146.2c0.6-0.2,28.4-31.5,38.8-50.4c10.4-18.9,12.2-48.5,11-54.1c-1.2-5.6-2.7-10.8-2.7-10.8l4.8-3.1
	l36,31.7L184.8,146.2z"/>
<g>
	<g>
		<path d="M226.8,275.5c1.2,0.8,2.6,1,4,1.5c-1.4-2.4-2.7-4.8-4.1-7.2c0,0.2-0.1,0.4-0.2,0.6c0.8-1.1,1.6-2.1,2.5-3.2
			c0.7-0.2,0.7-0.2,0.1-0.1c-2.3,0.6-3.7,2.8-3.8,5c-0.2,4,3.7,6.1,7.1,6.3c2.2,0.2,4.5-0.5,6.4-1.7c3-1.9,3.9-5.9,1.7-8.9
			c-1-1.3-2.3-2-3.9-2.3c-2-0.3-3.5,0.4-5.1,1.7c0.4-0.3,0.7-0.3,0.1-0.2c0.2-0.1,1.5-0.2,0.9-0.3c-0.2,0-1-0.2-0.3,0.1
			c0.6,0.2,1.1,0.3,1.6,0.8c-2.1-2.1-5.9-2.2-8,0c-2,2.2-2.3,5.9,0,8c1.8,1.6,3.9,2.4,6.3,2.3c0.5,0,0.9-0.1,1.4-0.1
			c0.4-0.1,0.8-0.1,1.2-0.2c-0.2,0-0.4,0.1-0.6,0.1c0,0,0.8,0,0.9-0.1c0.8-0.1,1.6-0.2,2.4-0.4c-1.5-3.7-3.1-7.4-4.6-11
			c-0.6,0.3-0.4,0.3,0.4-0.1c-0.2,0.1-0.5,0.2-0.7,0.2c-0.2,0.1-0.5,0.1-0.8,0.2c0.9-0.1,1.1-0.1,0.4-0.1c-2.5,0-4.6,0.8-6,2.9
			c1.5,2.6,3,5.2,4.5,7.9c0.9-0.1,1.7-0.2,2.6-0.4c-0.9,0-1.9,0-2.8,0c0.7,0.2,1.4,0.2,2.1,0.3c2.9,0.2,5.4-2.4,5.8-5.1
			c0.4-2.8-1.4-5.8-4.2-6.5c-1.9-0.4-3.8-0.8-5.8-0.3c-2.1,0.6-3.7,2.5-4,4.6C223.9,272.2,224.9,274.3,226.8,275.5L226.8,275.5z"/>
	</g>
</g>
<g>
	<g>
		<path d="M281.3,232.1c-0.8-3.5-4.4-5.8-7-7.9c-2.6-2.1-4.7-4.8-7.5-6.7c-3.7-2.5-7.4,1.6-6.8,5.3c0.6,3.7,3.9,6.4,6.6,8.6
			c2.8,2.2,5.5,5.4,8.9,6.6C279,239.2,282.1,235.3,281.3,232.1L281.3,232.1z"/>
	</g>
</g>
<ellipse transform="matrix(0.703 -0.7112 0.7112 0.703 -17.0711 71.6942)" class="st3" cx="77.3" cy="56.3" rx="5.2" ry="13.2"/>
<path class="st3" d="M61.1,38.2c0.7-0.5,2,0.3,3.1,1.8c1,1.4,1.4,3,0.7,3.5c-0.7,0.5-2-0.3-3.1-1.8C60.8,40.2,60.5,38.7,61.1,38.2z"
	/>
</svg>
