<?xml version="1.0" encoding="utf-8"?>
<!-- Generator: Adobe Illustrator 22.0.0, SVG Export Plug-In . SVG Version: 6.00 Build 0)  -->
<svg version="1.1" id="Layer_1" xmlns="http://www.w3.org/2000/svg" xmlns:xlink="http://www.w3.org/1999/xlink" x="0px" y="0px"
	 viewBox="0 0 300 300" style="enable-background:new 0 0 300 300;" xml:space="preserve">
<style type="text/css">
	.st0{fill:#471C72;}
	.st1{opacity:0.25;}
	.st2{opacity:0.26;}
	.st3{fill:#FFFFFF;}
</style>
<g>
	<path class="st0" d="M114.2,202H60.3l-7,24.1H14.9l50-153.5h44.7l50,153.5h-38.4L114.2,202z M104.4,169.1L87.3,111l-17.1,58.1
		H104.4z"/>
</g>
<g>
	<g>
		<path d="M106.5,74.4c2.9,13.3,6.9,26.4,11.4,39.3c4.4,12.5,9.8,24.6,13.9,37.2c4.2,12.8,7.7,25.7,11.5,38.6
			c1.9,6.4,3.7,12.7,5.6,19.1c1.8,6,2.7,13.9,6.9,18.7c1.8,2.1,6.1,1.2,6.6-1.7c1-6.2-2.1-12.7-3.9-18.6c-1.9-6.7-3.9-13.4-5.8-20.1
			c-3.8-12.9-7.4-25.9-11.7-38.6c-4.2-12.6-9.7-24.6-14.2-37.1c-4.6-12.9-8.3-26-13.1-38.8C112,68,105.4,69.7,106.5,74.4L106.5,74.4
			z"/>
	</g>
</g>
<g>
	<g>
		<path d="M117.9,200.7c-0.2-0.4-0.3-0.7-0.5-1.1c-2-4.4-8.6-1.2-7.6,3.2c1.2,5.1,3.2,10.1,4.8,15.1c1,3,1.1,7.8,4,9.5
			c2,1.2,4.5,0.4,5.7-1.5c0,0,0-0.1,0.1-0.1c1-1.6,0.5-3.5-0.6-4.9c0,0-0.1-0.1-0.1-0.1c0.4,1.4,0.7,2.7,1.1,4.1
			c0.7-3.9-0.8-7.5-2.1-11.1c-1.7-4.8-3.1-9.7-5.2-14.3c-1.6,2-3.1,4.1-4.7,6.1c0.3,0.1,0.7,0.2,1,0.4
			C117.1,207.2,119.1,203.3,117.9,200.7L117.9,200.7z"/>
	</g>
</g>
<g>
	<g>
		<path d="M122.8,230.3c6.8,0.2,13.6-0.2,20.4,0c6.1,0.1,12.9,1.7,18.7-0.7c3.1-1.3,2.5-5.9,0-7.4c-5.4-3.2-13.5-2-19.6-1.9
			c-6.9,0-13.8,0.2-20.6,1.3C116.4,222.3,117.9,230.1,122.8,230.3L122.8,230.3z"/>
	</g>
</g>
<g>
	<g>
		<path d="M84.2,109.6c1.5,10.6,5.1,21.2,8.1,31.5c1.5,4.9,3,9.8,4.7,14.6c1.6,4.4,2.6,9.2,6.4,12.1c1.4,1.1,3.6-0.1,4-1.6
			c1.1-4.2-1-8.6-2.3-12.7c-1.6-5.2-3.2-10.4-4.8-15.5c-3.1-10-5.3-20.5-8.9-30.3C89.7,103,83.5,104.9,84.2,109.6L84.2,109.6z"/>
	</g>
</g>
<g>
	<g>
		<path d="M83,107.9c-3.8,10.6-6.1,21.4-10.6,31.8c-4.1,9.4-6.5,19.2-8.6,29.2c-1.2,5.9,7.6,8.5,9.1,2.5c2.7-10.4,4.9-20.3,9.2-30.2
			c4.2-9.8,7.8-20.4,9.5-30.9C92.5,104.6,85,102.4,83,107.9L83,107.9z"/>
	</g>
</g>
<g>
	<g>
		<path d="M67.2,173.3c6.4-0.1,12.7,0,19.1-0.1c5.7-0.1,12.2-2,17.8-0.9c5.7,1.2,8.2-7.3,2.4-8.9c-6.4-1.8-12.9,0-19.4,0.2
			c-3.7,0.1-7.4,0.2-11.2,0.3c-3.2,0.1-6.9-0.3-9.9,0.8C61.6,166.3,62,173.3,67.2,173.3L67.2,173.3z"/>
	</g>
</g>
<g>
	<g>
		<path d="M64.5,163.5c-0.7,1.6-1.4,3-0.9,4.8c2.1-0.3,4.2-0.6,6.4-0.9c-0.1,0.2-0.1,0.1,0-0.3c-0.1,0.1-0.1,0,0.1-0.3
			c0.2-0.3,0.4-0.6,0.6-1c0.5-0.7,0.9-1.2,1.6-2.1c1.2-1.6,0.3-4.2-1.3-5c-1.7-0.9-4.1-0.5-5,1.3c-1,2-1.4,4.1-2.1,6.2
			c0.3-0.5,0.5-0.9,0.8-1.4c-0.1,0.1-0.1,0.2-0.2,0.3c-1,1.3-1.3,2.9-0.3,4.3c1,1.2,2.8,1.7,4.2,0.8c1.5-1,2.1-2.4,2.7-4
			c0.6-1.7-0.5-3.5-2.1-4.2C67.4,161.4,65.3,161.9,64.5,163.5L64.5,163.5z"/>
	</g>
</g>
<g>
	<g>
		<path d="M70,173.7c1.8,0.5,3.5,0.6,5.4,0.3c-0.7-1.7-1.4-3.5-2.2-5.2c-1,1-2.4,0.5-3.7,0.9c-2.8,0.7-2.3,5.4,0.7,5.2
			c3-0.3,6.1-0.3,9.1-0.6c2.7-0.3,5.6-0.3,7.9-1.9c1.9-1.3,1.7-4.1-0.6-4.9c-2.6-0.9-5.4,0-8.1,0.4c-3,0.5-6,1.3-9,1.9
			c1.1,1.1,2.2,2.2,3.2,3.2c0.3,0.2,0.7,0.5,1,0.7c4.8,2.4,6.3-5.8,1.5-5.7c-2.1,0.1-4,0.4-6,1.3C67.4,170.1,68.1,173.2,70,173.7
			L70,173.7z"/>
	</g>
</g>
<path class="st0" d="M205,175.7h-13.6v50.4h-35.1V72.7h35.1h24.1c9.5,0,18.3,2.3,26.4,7c8.1,4.7,14.5,11.1,19.2,19.2
	c4.7,8.1,7,16.9,7,26.4c0,9.1-2.5,17.5-7.5,25.4c-5,7.9-11.5,14.1-19.7,18.6l44.7,56.8h-40.8L205,175.7z M191.4,145h24.1
	c4.8,0,9-1.9,12.4-5.7c3.4-3.8,5.2-8.5,5.2-14c0-5.6-1.7-10.2-5.2-14c-3.4-3.8-7.6-5.7-12.4-5.7h-24.1V145z"/>
<g>
	<g>
		<path d="M62.1,204.5c0.1-0.6,0.1-1.1-0.1-1.7c-0.1-0.3-0.3-0.5-0.5-0.7c-0.1-0.1-0.2-0.1-0.2-0.2c-0.3-0.2-0.3-0.2,0.1,0.2
			c-0.5-0.9-2.1-1-2.6,0c0-0.1,0.1-0.1,0,0c-0.2,0.2-0.4,0.5-0.5,0.7c-0.2,0.5-0.3,1.2,0,1.7c0.3,0.8,1,1.5,1.9,1.5
			C61,206,62,205.4,62.1,204.5L62.1,204.5z"/>
	</g>
</g>
<g>
	<g>
		<path d="M116.3,198.6c-3.8-2.5-8.8-2.1-13.2-2.3c-5.2-0.3-10.4-0.3-15.7,0c-5,0.3-9.9,0.6-14.9,0.2c-4.6-0.3-8.9-0.4-13.3,0.7
			c-4.9,1.2-4,9.7,1.2,9.1c4.7-0.6,9.2,0.4,13.8,0.8c4.7,0.4,9.4-0.2,14.1-0.5c4.9-0.4,9.8-0.6,14.7-0.9c4.4-0.2,9.3,0.4,13.2-2
			C118.2,202.5,118.1,199.8,116.3,198.6L116.3,198.6z"/>
	</g>
</g>
<g>
	<g>
		<path d="M55.6,202.1c-2.5,8.1-4.6,16.2-7.5,24.2c-1.9,5.4,6.3,7.4,8.5,2.3c3.2-7.7,6.1-15.9,7.3-24.2
			C64.8,199,57.3,196.6,55.6,202.1L55.6,202.1z"/>
	</g>
</g>
<g>
	<g>
		<path d="M52,223.7c-3.1-0.4-6.1-1.6-9.2-2c-3.5-0.5-7-0.8-10.4-1c-6.1-0.3-13.3-1.1-18.8,2.2c-2.6,1.5-1.8,5,0.8,6
			c6.1,2.3,13.5,0.6,19.9,0.8c3.2,0.1,6.3,0.4,9.5,0.6c2.8,0.2,6.5,1.2,9.2,0.1C56.7,229.1,56,224.2,52,223.7L52,223.7z"/>
	</g>
</g>
<g>
	<g>
		<path d="M112.4,69.1c-9-1.6-18.8-0.5-27.9,0c-4.5,0.3-9,0.6-13.4,1c-4.1,0.4-8.7-0.3-11.6,2.9c-1,1.1-1.2,3,0,4
			c3.4,2.9,7.3,1.9,11.6,1.7c4.5-0.1,9-0.3,13.4-0.5c9.1-0.4,19,0.1,27.9-2.1C115.9,75.4,116.1,69.7,112.4,69.1L112.4,69.1z"/>
	</g>
</g>
<g>
	<g>
		<path d="M58.4,74.3c-4.3,12-7.3,24.5-11.2,36.6c-3.8,12-7.5,24.1-11.2,36.1c-3.8,12-7.8,24-12.2,35.8c-4.6,12.2-9.9,24.2-12.7,37
			c-1,4.4,5.6,6.3,6.8,1.9c3.3-12.3,8.5-24,13-35.9c4.6-12.1,8.9-24.3,12.8-36.6c3.7-11.7,7.3-23.5,10.7-35.3
			c3.6-12.6,8.2-24.9,11.3-37.6C66.8,71.5,60,69.8,58.4,74.3L58.4,74.3z"/>
	</g>
</g>
<g>
	<g>
		<path d="M11.5,219.9c-0.6,2.1-0.8,4.2-0.3,6.4c0.8,3.6,6.2,2.7,6.3-0.8c0-0.7,0-1.5,0.1-2.2c0-0.4,0-0.7,0-1.1c0-0.6,0,0,0.1-0.6
			c0.3-1.6-0.4-3.5-2.2-3.9C13.7,217.2,12,218.2,11.5,219.9L11.5,219.9z"/>
	</g>
</g>
<g>
	<g>
		<path d="M160.5,225.4c4-25.2,3-50.7,1.5-76.1c-0.7-12.6-1.6-25.1-2.1-37.7c-0.2-6.4-0.4-12.9-0.3-19.3c0-6.3,1.1-13,0-19.1
			c-0.6-3.2-5.1-2.7-6,0c-1.8,5.6-1.3,12.3-1.4,18.2c-0.1,6.1,0,12.2,0.2,18.4c0.4,12.6,1.2,25.1,1.9,37.7
			c1.4,25.3,2.2,50.7-1.4,75.9C152.2,228.2,159.7,230.4,160.5,225.4L160.5,225.4z"/>
	</g>
</g>
<g>
	<g>
		<path d="M188.5,221.9c-6.6,0-13.2,0-19.8,0.1c-5.2,0-12-1.5-16.1,2.4c-1.2,1.1-1.2,3.3,0,4.4c4.2,3.8,10.8,2.2,16.1,2.1
			c6.6-0.1,13.2-0.2,19.8-0.3C194.1,230.5,194.1,221.9,188.5,221.9L188.5,221.9z"/>
	</g>
</g>
<g>
	<g>
		<path d="M187.9,176.7c-1.9,7.9-1.4,16.9-1.4,25c0,4.2,0.1,8.4-0.1,12.5c-0.2,4-1.1,8.2-0.1,12.2c0.6,2.3,3.6,1.9,4.3,0
			c1.3-3.5,1-7.5,1.2-11.2c0.2-4.2,0.7-8.4,1.2-12.5c1-8,2.7-17,1.7-25.1C194.2,174,188.9,172.6,187.9,176.7L187.9,176.7z"/>
	</g>
</g>
<g>
	<g>
		<path d="M206.5,172.4c-3.9-0.5-7.9-0.8-11.8-1.1c-3.7-0.3-7,0.5-9.2,3.6c-1.8,2.5,1.2,5.7,3.9,5c5.7-1.4,11.4,0.3,17.1-1.1
			C209.5,178,209.8,172.8,206.5,172.4L206.5,172.4z"/>
	</g>
</g>
<g>
	<g>
		<path d="M203.4,178.9c12.3,15.6,22.7,32.4,35.7,47.5c3,3.5,8-1.6,5-5c-12.9-15.1-22.4-32.9-34.6-48.6
			C206.1,168.4,199.9,174.6,203.4,178.9L203.4,178.9z"/>
	</g>
</g>
<g>
	<g>
		<path d="M284.1,224c-5.5,0.6-11.7-0.3-17.3-0.5c-6.1-0.2-12.2-0.3-18.3-0.4c-5.2-0.1-5.2,8.1,0,8.1c6.4,0,12.9,0,19.3,0
			c5.1,0,12.4,1.2,17.2-0.7C288.2,229.3,288.2,223.5,284.1,224L284.1,224z"/>
	</g>
</g>
<g>
	<g>
		<path d="M240.2,225.7c-0.1,1,0.4,1.9,0.9,2.6c0.5,0.6,1,1,1.6,1.5c-0.3-0.2-0.5-0.4-0.8-0.6c0,0,0.1,0.1,0.1,0.1
			c-0.2-0.3-0.4-0.5-0.6-0.8c0,0.1,0.1,0.1,0.1,0.2c0.2,0.5,0.9,1.1,1.4,1.4c0.7,0.4,1.6,0.6,2.4,0.4c0.7-0.1,1.2-0.3,1.8-0.7
			c0.6-0.5,1.2-1.2,1.4-2c0.1-0.7,0.2-1.4,0-2.1c-0.2-0.6-0.6-1.3-1-1.8c-0.4-0.4-0.9-0.8-1.4-1c-0.9-0.5-2.2-0.8-3.2-0.5
			c-0.6,0.2-1.2,0.5-1.6,0.9C240.5,224,240.3,224.8,240.2,225.7L240.2,225.7z"/>
	</g>
</g>
<g>
	<g>
		<path d="M238.3,169.5c1.1,5.8,7.4,11.4,11,15.9c4.2,5.3,8.4,10.5,12.6,15.8c7.3,9.3,12.4,20.9,21.6,28.5c3.1,2.6,7.5-1.6,4.5-4.5
			c-8.6-8.4-13.8-19.5-21.1-29c-3.7-4.8-7.5-9.6-11.3-14.4c-3.7-4.7-8-12.7-13.6-15.2C240,165.6,237.9,167.2,238.3,169.5
			L238.3,169.5z"/>
	</g>
</g>
<g>
	<g>
		<path d="M186.5,104.5c-1.7,13.2-1.3,26.7,0.5,39.9c0.7,5.1,8.5,5.5,8.3,0c-0.7-13.3-0.7-26.6-0.8-39.9
			C194.4,99.2,187.1,99.6,186.5,104.5L186.5,104.5z"/>
	</g>
</g>
<g>
	<g>
		<path d="M190.1,146.6c16.7,7.2,46.3,1.6,46.9-20.8c0.2-8.7-6.6-18.3-14.1-22.3c-9-4.9-21.4-3.4-31.3-2.4c-4,0.4-5.6,6.5-1,7.5
			c7.3,1.6,14.9-0.9,22.3,0.2c7.2,1.1,14.6,7.7,15.3,15.3c0.7,8.2-7,13.7-14,15.5c-7.7,2-15.7,0.2-23.5,1.5
			C188.4,141.6,187.8,145.6,190.1,146.6L190.1,146.6z"/>
	</g>
</g>
<g>
	<g>
		<path d="M240.2,167C240.2,167,240.2,167,240.2,167C240.1,167,240.1,167,240.2,167L240.2,167z"/>
	</g>
</g>
<g>
	<g>
		<path d="M243.1,171.2c13.2-8.7,25-21.9,27.5-38c2.8-17.9-4.3-33.1-15.2-47c-5-6.5-11.5-9.1-19.2-11.3c-8.7-2.5-17.7-4.1-26.7-5
			c-9.4-0.9-18.8-1.2-28.2-1.1c-8.6,0.1-17.6-0.4-25.6,3.3c-4.3,2-0.5,8.3,3.7,6.3c7-3.3,16.2-2.4,23.8-2.4
			c7.5-0.1,15.1,0.1,22.6,0.7c8.1,0.6,16.2,1.6,24.1,3.5c7.1,1.7,14.7,3.3,19.6,9.2c10.3,12.3,16.5,27.4,13.5,43.6
			c-2.7,14.7-14.3,22.8-23.8,33C236.7,168.7,239.8,173.3,243.1,171.2L243.1,171.2z"/>
	</g>
</g>
<path class="st1" d="M99.9,74c0,0,33.2,102.6,37.9,119.4s5.9,19.9,3.5,22.1c-2.5,2.2-20,2.7-20,2.7l3.1,7l28.6-1.2v-12.4L108.7,75.3
	L99.9,74z"/>
<path class="st1" d="M239.3,167.5c0.2-0.5,10.8-15.9,13.9-29.2c3.1-13.3,0.7-26.2-4.1-35.4c-4.8-9.2-15.8-21-23-24.6
	s-2.1-3.2-2.1-3.2s24.9,6.7,24.9,7.1s17.7,32.5,17.7,32.5l-2,27.3L239.3,167.5z"/>
<path class="st2" d="M238.6,170.9c0,0,11.3,19.6,17.7,31.6c6.4,12,3.8,13.5,2.3,14.6c-1.5,1.1-17.8,2.5-17.8,2.5l4.1,6.5l36.2-0.9
	l-39.2-55.1L238.6,170.9z"/>
<ellipse transform="matrix(0.2186 -0.9758 0.9758 0.2186 -45.8055 141.3926)" class="st3" cx="65.4" cy="99.3" rx="10.4" ry="4.1"/>
<path class="st3" d="M70.7,80.8c0.6,0.2,0.6,1.5,0.1,2.8c-0.5,1.3-1.4,2.2-2,1.9c-0.6-0.2-0.6-1.5-0.1-2.8
	C69.2,81.5,70.1,80.6,70.7,80.8z"/>
<ellipse transform="matrix(0.9983 -5.823480e-02 5.823480e-02 0.9983 -4.7993 9.833)" class="st3" cx="166.3" cy="87.3" rx="3.4" ry="7.5"/>
<path class="st3" d="M163.8,107.2c-1.1-0.1-1.8-2.2-1.5-4.7c0.3-2.5,1.4-4.4,2.5-4.2c1.1,0.1,1.8,2.2,1.5,4.7
	C166,105.5,164.9,107.4,163.8,107.2z"/>
</svg>
