<?xml version="1.0" encoding="utf-8"?>
<!-- Generator: Adobe Illustrator 22.0.0, SVG Export Plug-In . SVG Version: 6.00 Build 0)  -->
<svg version="1.1" id="Layer_1" xmlns="http://www.w3.org/2000/svg" xmlns:xlink="http://www.w3.org/1999/xlink" x="0px" y="0px"
	 viewBox="0 0 300 300" style="enable-background:new 0 0 300 300;" xml:space="preserve">
<style type="text/css">
	.st0{fill:#ED453A;}
	.st1{opacity:0.25;}
	.st2{opacity:0.26;}
	.st3{fill:#FFFFFF;}
</style>
<rect x="-14.6" y="119.1" transform="matrix(0.7071 0.7071 -0.7071 0.7071 149.7044 -63.1901)" class="st0" width="331.6" height="60"/>
<rect x="-14.6" y="119.1" transform="matrix(-0.7071 0.7071 -0.7071 -0.7071 363.4337 147.6891)" class="st0" width="331.6" height="60"/>
<g>
	<g>
		<path d="M50.9,16.4C67.2,32.7,84.2,48.5,101,64.4c7.7,7.4,15.5,14.7,23.2,22.2c3.9,3.8,7.8,7.7,11.6,11.7
			c3.9,4.2,7.3,9.1,11.5,12.9c5.1,4.6,12.5-1.1,9.4-7.3c-4.7-9.3-14.1-17.3-21.4-24.4c-8.1-7.9-16.4-15.6-24.5-23.4
			c-17-16.2-33.8-32.6-51.2-48.3C53.7,2.5,45.3,10.8,50.9,16.4L50.9,16.4z"/>
	</g>
</g>
<g>
	<g>
		<path d="M244,7.1c-9.6,7.2-17.5,16.8-25.8,25.5c-8,8.4-16,16.8-24.7,24.6c-8.1,7.3-16.5,14.3-23.9,22.3
			c-6.9,7.5-13.5,16.6-22,22.3c-5.9,3.9-0.6,13.2,5.6,9.5c9.3-5.4,16.1-12.6,23.2-20.5c7.7-8.5,16.2-15.9,24.8-23.5
			c8.7-7.7,16.7-16,24.6-24.5c8.6-9.2,18.4-18.1,25.3-28.7C253.9,10.1,248.3,4,244,7.1L244,7.1z"/>
	</g>
</g>
<g>
	<g>
		<path d="M245.4,17.8c5,8.4,11.4,16,18.7,22.4c3.6,3.1,7.3,6,11.2,8.8c4,2.8,7.6,6.6,12.2,8.4c3.5,1.4,7.4-2.8,6.2-6.2
			c-3-8.3-14.1-13.2-20.5-18.8c-7.2-6.3-13.6-13.4-19.6-20.9C249.8,6.9,242.4,12.9,245.4,17.8L245.4,17.8z"/>
	</g>
</g>
<g>
	<g>
		<path d="M287.2,52.1c0.1,0.2,0.2,0.3,0.3,0.5c0.5,0.7,1.7,0.3,1.4-0.6c-0.1-0.3-0.2-0.5-0.3-0.7C288.1,50.4,286.7,51.2,287.2,52.1
			L287.2,52.1z"/>
	</g>
</g>
<g>
	<g>
		<path d="M289.1,52c0.3,0,0.3-0.4,0-0.4C288.8,51.6,288.8,52,289.1,52L289.1,52z"/>
	</g>
</g>
<g>
	<g>
		<path d="M289.6,46.2c-9.6,6.5-18.2,14.9-26.6,22.9c-8.7,8.2-17.2,16.5-25.5,25c-8.2,8.4-15.9,17.3-24.4,25.4
			c-8.7,8.4-18.2,15.9-27.1,24.1c-5.3,4.9,2,14.7,7.8,10.2c9.2-7.1,18.5-14.4,26.9-22.4c8.7-8.3,16.5-17.6,24.7-26.5
			c7.9-8.5,15.9-16.9,24-25.1c8.6-8.6,18-16.7,25.8-26C298.6,49.9,294.4,43,289.6,46.2L289.6,46.2z"/>
	</g>
</g>
<g>
	<g>
		<path d="M196.8,149.7c0.1-0.2,0.1-0.3,0.2-0.5c3-7.4-13.3-8.8-9.1,1.2c3.7,8.6,13,14.7,19.9,20.4c8.4,6.9,15.9,14.7,23.4,22.5
			c7.8,8.2,15.6,16.5,23.3,24.8c3.7,4.1,7.5,8.1,11.2,12.2c3.6,3.9,7.5,10.5,13.5,9.7c2.3-0.3,4.5-1.5,5.2-3.9c1.5-6-3-9.6-6.6-13.7
			c-3.7-4.1-7.4-8.2-11.1-12.2c-7.9-8.6-16-17-24.1-25.4c-7.4-7.7-14.9-15.3-23.5-21.7c-3.8-2.8-7.7-5.4-11.5-8.3
			c-4.2-3.2-7.8-7.1-11.8-10.4c-0.7,2.8-1.5,5.6-2.2,8.3C195.2,152.2,196.2,151.3,196.8,149.7L196.8,149.7z"/>
	</g>
</g>
<g>
	<g>
		<path d="M272,232.7c0.4,3.7,2.7,6.2,4.8,9c2.2,2.9,4.4,5.6,6.7,8.3c4.8,5.5,13-2.6,8-8c-2.2-2.4-4.4-4.8-6.7-7.2
			c-2.3-2.4-4.4-5.2-7.7-6.2C274.8,228,271.7,230,272,232.7L272,232.7z"/>
	</g>
</g>
<g>
	<g>
		<path d="M268.8,231.2c1.6,2.9,4.1,5.4,6.3,8c1,1.2,2.1,2.3,3.1,3.5c0.5,0.6,1.6,1.5,1.9,2.2c1.2,3.5,4.7,5.8,8.4,4.8
			c3.5-1,5.9-4.9,4.8-8.4c-1.3-4.3-4.3-7.3-7.5-10.2c-3.3-3-6.8-6-10.9-7.6C270.2,221.6,266.8,227.5,268.8,231.2L268.8,231.2z"/>
	</g>
</g>
<g>
	<g>
		<path d="M289.9,243.1c0.1,0,0.1-0.2,0-0.2C289.8,242.9,289.8,243.1,289.9,243.1L289.9,243.1z"/>
	</g>
</g>
<g>
	<g>
		<path d="M292.4,238.9c-10.9-1.7-20.2,12.4-26.9,19.2c-4.1,4.1-8.3,8.1-12.8,11.8c-4.3,3.6-12.3,7.2-13.2,13.2
			c-0.5,3.2,0.8,7,4.4,7.8c6.7,1.5,11.3-3.5,16.2-7.5c4.8-3.8,9.3-7.9,13.6-12.3c4-4.1,7.5-8.6,11.2-12.9c3.4-3.9,9.5-8.6,10.7-13.7
			C296.1,242.4,294.9,239.3,292.4,238.9L292.4,238.9z"/>
	</g>
</g>
<g>
	<g>
		<path d="M146.8,193.5c2.9,4.1,7.2,7.3,10.7,10.9c3.6,3.8,7,7.8,10.3,11.9c6.6,8.3,12.8,16.9,19.3,25.2
			c14.1,17.7,31.6,31.8,47.1,48.2c5.8,6.1,14.8-3,9.2-9.2c-15.3-17-33.2-31-47.7-48.8c-6.6-8.2-13-16.6-20-24.5
			c-6.5-7.3-14.2-17-23.5-20.8C148.5,184.7,144.5,190.2,146.8,193.5L146.8,193.5z"/>
	</g>
</g>
<g>
	<g>
		<path d="M242.4,280.7c-3.2-9.2-11.9-15.8-19.2-21.7c-8.2-6.6-15.2-14-22.2-22c-14.8-17-29.5-34.3-45-50.7c-6-6.3-14.8,2.9-9.4,9.4
			c14.2,17.1,29.4,33.5,44.3,50c6.9,7.6,13.7,14.9,21.9,21.2c3.8,2.9,7.6,5.7,11.2,8.8c3.9,3.3,8.1,7.2,12.9,9.2
			C239.6,286.2,243.7,284.2,242.4,280.7L242.4,280.7z"/>
	</g>
</g>
<g>
	<g>
		<path d="M240.2,289.3c0-0.1,0-0.5-0.1-0.1c0-0.1,0.1-0.6,0-0.1c-0.2,0.3-0.3,0.6-0.5,0.8c-0.2,0.2-0.4,0.3-0.7,0.4
			c0.3-0.1,0.6-0.2,0.8-0.4c0.5-0.4,0.8-0.8,0.9-1.4c0.1-0.7,0.1-1.3-0.2-1.9c-0.3-0.5-0.9-1-1.4-1.1c-1.3-0.3-2.5,0.4-3,1.7
			c0,0.1,0,0.1,0,0.2c-0.2,0.8,0,1.8,0.6,2.3c0,0,0.1,0.1,0.1,0.1c0.5,0.4,0.6,0.4,0.2,0.1c-0.2-0.3-0.3-0.6-0.5-0.8
			c0.2,0.7,0.6,1.3,1.1,1.8C238.7,292,240.7,290.9,240.2,289.3L240.2,289.3z"/>
	</g>
</g>
<g>
	<g>
		<path d="M148,186.1c-3.8,2.4-7,6.4-10.3,9.6c-4.4,4.3-8.7,8.7-13.1,13.1c-8.6,8.4-16.8,17.2-25.3,25.7
			c-8.2,8.3-16.5,16.6-24.8,24.9c-4.4,4.4-8.8,8.7-13.1,13.1c-4.1,4.1-8.9,8.1-11.1,13.5c-1.5,3.8,3.1,8.2,6.8,6.8
			c5.2-1.9,9-6.4,13-10.2c4.3-4,8.4-8.1,12.6-12.2c8.6-8.4,17.1-16.9,25.5-25.5c8.2-8.3,16.5-16.6,24.4-25.2
			c7.5-8.1,16.7-16.4,22.3-25.9c0.9-1.5,1.1-3.9,0-5.4c-0.1-0.1-0.2-0.2-0.3-0.3C153.2,185.8,150.5,184.5,148,186.1L148,186.1z"/>
	</g>
</g>
<g>
	<g>
		<path d="M19.4,248c-0.4-0.1-0.7-0.3-1.1-0.4c-0.3-0.1-0.7-0.3-1-0.3c-0.3,0-0.4,0.4-0.1,0.5c0.3,0.2,0.7,0.3,1,0.4
			c0.4,0.1,0.8,0.2,1.1,0.3C19.5,248.6,19.7,248.1,19.4,248L19.4,248z"/>
	</g>
</g>
<g>
	<g>
		<path d="M10.1,249.7c5.3,8,11.6,15.1,18.2,22.1c3.3,3.5,6.8,6.8,10.4,10.1c3.6,3.2,6.9,6.7,11.5,8.3c5.5,1.9,9.9-4.8,7.3-9.5
			c-2.4-4.1-6.6-6.9-10.2-10c-3.2-2.8-6.2-5.7-9.3-8.5c-6.6-6.2-12.7-12.8-19.2-19.1C14.4,238.8,6.5,244.3,10.1,249.7L10.1,249.7z"
			/>
	</g>
</g>
<g>
	<g>
		<path d="M106.2,143.5c-18.8,14.8-35,32.9-52.9,48.8c-16.8,14.9-35,28.8-49.7,45.8c-6.8,7.8,4.1,19,11.5,11.5
			c32.6-33.2,70.7-60.9,99.5-97.8C119.2,145.8,112.2,138.7,106.2,143.5L106.2,143.5z"/>
	</g>
</g>
<g>
	<g>
		<path d="M3.3,249.6c4.1,3.4,8.3,6.6,12.5,9.9c2.3,1.8,5.3,2.2,7.5,0c1.8-1.8,2.2-5.7,0-7.5c-4.5-3.6-9-7.2-13.6-10.7
			C4.9,237.7-1.4,245.8,3.3,249.6L3.3,249.6z"/>
	</g>
</g>
<g>
	<g>
		<path d="M10.6,57c0.1,0,0.2,0,0.3,0c-1.6-0.9-3.1-1.8-4.7-2.7c2.7,3.7,6.9,6.3,10,9.7c3.8,4.3,7,8.9,10.7,13.3
			c7.6,9,17.3,15.8,25.6,24c8.4,8.4,15.6,17.8,24.2,25.9c8.5,8,16.2,16,23.3,25.2c5,6.5,14.6-1.8,11-8.5
			c-5.5-10-14.9-17.9-23.1-25.7C79,110.1,71.6,100.7,63.1,92c-8.3-8.4-18.1-15-26-23.8c-3.6-4-6.9-8.4-10.5-12.4
			c-3.3-3.6-8.2-9.5-13.3-10.3c-2.7-0.4-5.5,0.3-6.9,2.8c-0.1,0.1-0.1,0.3-0.2,0.4c-1,1.7-1,3.8,0,5.5C7.2,55.9,8.6,56.9,10.6,57
			L10.6,57z"/>
	</g>
</g>
<g>
	<g>
		<path d="M51,6.5c-4.8,1.4-8.9,5.2-12.8,8.3C34,18.1,30,21.6,26.3,25.4c-3.5,3.6-6.8,7.4-10,11.4c-3.3,4.2-7.2,8.6-9,13.8
			c-2,5.6,5.7,9.4,9.6,5.6c3.3-3.2,5.6-7.7,8.5-11.4c3.1-4,6.4-7.8,10-11.5c3.3-3.4,6.7-6.8,10.3-9.9c3.7-3.2,8-5.8,10.9-9.7
			C59.1,10.2,54.8,5.5,51,6.5L51,6.5z"/>
	</g>
</g>
<g>
	<g>
		<path d="M292.4,45.6c-4.8-3.6-10.5-6-15.3-9.7c-4.1-3.2-8.7,2.8-6.6,6.6c1.5,2.8,5.2,4.2,7.8,5.7c3.1,1.7,6.2,3.7,9.5,5.1
			C293.2,55.7,297.1,49.1,292.4,45.6L292.4,45.6z"/>
	</g>
</g>
<g>
	<g>
		<path d="M295.2,47c-4.5-6.2-13.3-10.3-19.5-14.7c-3.5-2.5-13.8-13-18.3-7.3c-4.4,5.8,7.5,12.1,10.8,14.5c3.5,2.5,7,5,10.7,7.3
			c3.6,2.3,7.3,5.4,11.5,6.2C293.6,53.7,297.5,50.2,295.2,47L295.2,47z"/>
	</g>
</g>
<g>
	<g>
		<path d="M112.7,146.6c-0.3-2.7-2.1-3.9-4.2-5.4c-0.9-0.7-1.9-1.4-2.8-2.1c-1.4-1.1-2.3-1.7-4.1-1.9c-2.7-0.3-4.2,3.2-3,5.2
			c1.9,3.2,6.5,3.6,9,6.3C109.2,150.5,113,149.2,112.7,146.6L112.7,146.6z"/>
	</g>
</g>
<g>
	<g>
		<path d="M113,145.6c0-0.1,0-0.2,0-0.2c0.3-2-0.3-3.3-1.8-4.5c-1.6-1.2-3-2.6-4.5-3.9c-2-1.6-3.9-3.6-6.7-3.4
			c-2.7,0.2-5.2,2.7-4.3,5.6c1.4,4.5,7.7,6.3,11.5,8.5c1.2,0.7,2.8,0.7,4,0C112,147.3,112.9,146.6,113,145.6L113,145.6z"/>
	</g>
</g>
<g>
	<g>
		<path d="M187.2,151.8c0.1,2.4,1.9,3.5,3.7,4.8c1.4,1,2.8,2.1,4.4,2.7c3.4,1.2,6-3.6,3.5-6c-1.2-1.1-2.7-1.8-4.1-2.7
			c-1.7-1.1-3-2.2-5.2-1.8C188.3,149,187.2,150.5,187.2,151.8L187.2,151.8z"/>
	</g>
</g>
<g>
	<g>
		<path d="M234.6,278.2c0.8,0.7,1.6,1.5,2.3,2.3c0.9,1,1.2,1.6,2.1,2.5c2.4,2.5,6.9-0.8,4.9-3.8c-1.4-2.2-3.8-3.9-6-5.4
			C235.3,272.1,232.2,276.1,234.6,278.2L234.6,278.2z"/>
	</g>
</g>
<g>
	<g>
		<path d="M245.7,291.3c0.1,0,0.3-0.1,0.4-0.1c-0.3,0-0.6,0.1-0.9,0.1c0.1,0,0.1,0,0.2,0c-0.8-0.3-1.6-0.7-2.4-1
			c0.6,0.5,1,0.8,1.7,1c0.8,0.2,1.5,0.1,2.3-0.1c1.7-0.4,3.1-2.2,3-3.9c-2.2,0.6-4.4,1.2-6.6,1.8c0,0,0,0.1,0,0.1
			c-0.1-0.3-0.2-0.5-0.3-0.8c0,0.1,0.1,0.2,0.1,0.2c0-0.3-0.1-0.6-0.1-0.9c0.1,0.7,0.2,1.3,0.5,1.9c0-0.9,0-1.9,0-2.8
			c0,0.1-0.1,0.2-0.1,0.2c0.3-0.3,0.6-0.6,1-1c0,0-0.1,0-0.1,0.1c0.4-0.1,0.9-0.2,1.3-0.4c0,0-0.1,0-0.1,0c-1.1,0-2.1,0.7-2.5,1.7
			c-0.4,0.9-0.3,2.3,0.6,3c0.7,0.6,1.4,1,2.3,1c0.7,0,1.2-0.2,1.8-0.5c-0.8,0-1.6,0-2.5,0c-0.1-0.1-0.2-0.2-0.4-0.3
			c0.7-0.2,1.5-0.4,2.2-0.6c0,0,0,0,0,0.1c-0.2,0.2-0.4,0.5-0.6,0.7c0.2-0.1,0.3-0.2,0.5-0.4c0.3-0.3,0,0,0,0c0.9-0.5,1-1.9,0.2-2.5
			c-0.9-0.7-2-0.2-2.4,0.8c-0.2,0.6-0.2,1.4,0.3,1.9c-0.1-0.2-0.2-0.4-0.3-0.5c0.4,1.6,2.6,1.5,3.5,0.4c0.5-0.6,1-1.5,0.6-2.4
			c-0.3-0.8-0.6-1.4-1.4-1.9c-0.6-0.4-1.3-0.6-2-0.6c0.6,1.5,1.3,3.1,1.9,4.6c-0.1,0.1-0.2,0.2-0.3,0.3c-0.4,0.1-0.9,0.2-1.3,0.4
			c0.3,0,0.7-0.1,1-0.1c-0.7-0.1-1.4-0.2-2.2-0.3c1,0.4,1.9,0.6,2.9,0.1c0.6-0.2,1-0.5,1.5-1c0.8-0.8,1.1-1.9,1-3
			c-0.2-1.1-0.7-1.9-1.7-2.6c-1.5-1-3.7-0.7-4.9,0.6c-1.1,1.2-1.5,2.4-1.2,4c0.1-0.9,0.2-1.7,0.3-2.6c0.3-0.4,0.4-0.5,0.1-0.2
			c-0.9,1-1.2,2.6-0.5,3.8C243,291.1,244.4,291.7,245.7,291.3L245.7,291.3z"/>
	</g>
</g>
<g>
	<g>
		<path d="M56.4,286.3c-0.7-0.5-1.3-1-2-1.5c-0.8-0.6-1.5-1.3-2.4-1.8c-1.9-1-4.2,0-4.5,2.2c-0.3,2.1,1.7,3.9,3.7,3.3
			c0.1,0,0.2-0.1,0.3-0.1c-0.7-0.2-1.4-0.4-2.1-0.5c0.7,0.7,1.5,1.5,2.2,2.2c0.5-1.1,0.9-2.2,1.4-3.3c-0.1,0-0.5-0.1-0.7-0.2
			c0.5,0.6,0.9,1.2,1.4,1.8c0-0.2,0-0.4,0-0.6c-0.1,0.4-0.2,0.9-0.4,1.3c0.6-1.1,0.4-2.1-0.1-3.2c-1.5,1.2-3.1,2.4-4.6,3.5
			c0.4,0.4,0.8,0.7,1.2,1.1c0.7,0.5,1.4,0.7,2.2,0.8c1.8,0.2,2.9-1.9,2.6-3.4c-0.3-1.2-1.1-1.9-1.9-2.6c-1.1-1-3-1.2-4.1,0
			c-1,1.1-1.2,3,0,4.1c0.1,0.1,0.1,0.1,0.2,0.2c0.7,0.7,1.8,1.1,2.8,0.7c0.2-0.1,0.4-0.2,0.7-0.2c-0.5-0.1-1-0.1-1.4-0.2
			c0.5,0.3,1,0.5,1.6,0.6c0.8,0.1,1.5,0,2-0.7c0.4-0.6,0.6-1.5,0.2-2.1c-0.6-0.8-1.3-1.6-1.9-2.5c0,0.7,0,1.4,0,2.1
			c0.1-0.1,0.1-0.2,0.2-0.3c-1.6,0.2-3.1,0.4-4.7,0.6c1.3,1.2,3.1,2.1,4.6,3c1.2,0.8,2.8,0.3,3.6-0.7
			C57.4,289,57.5,287.1,56.4,286.3L56.4,286.3z"/>
	</g>
</g>
<g>
	<g>
		<path d="M52,286.8c-0.1-0.1-0.1-0.1-0.2-0.2c-0.6-0.5-1.4-0.6-2.1,0c-0.1,0.1-0.1,0.1-0.2,0.2c-1.1,1-0.2,3,1.2,2.9
			c0.6,0,1.2-0.3,1.5-0.9C52.7,288.3,52.6,287.3,52,286.8L52,286.8z"/>
	</g>
</g>
<g>
	<g>
		<path d="M49.2,288.3c0.1,0.1,0.3,0.2,0.4,0.4c-0.2-0.2,0,0,0.1,0.1c0.2,0.4,0.5,0.8,0.8,1.1c0.7,0.8,2.1,0.7,2.8,0
			c0.8-0.9,0.7-1.9,0-2.8c-0.7-0.9-2-1.2-3.1-1.1c-0.5,0-1,0.3-1.2,0.8C48.7,287.3,48.8,287.9,49.2,288.3L49.2,288.3z"/>
	</g>
</g>
<g>
	<g>
		<path d="M50.5,289.7c0.3,0,0.7-0.1,1-0.1c0.9-0.1,1.7-0.5,2-1.4c0.3-0.8,0.2-1.9-0.5-2.4c-0.2-0.2-0.5-0.4-0.7-0.6
			c-1.4-1.2-3.6-0.9-4.3,0.9C47.4,287.6,48.6,289.8,50.5,289.7L50.5,289.7z"/>
	</g>
</g>
<path class="st1" d="M153.3,188c0,0,42.3,43.2,59.6,55c17.3,11.8,22,15.7,31.3,15.7s25.5-10.5,30.4-13.6s9.6-6,9.6-6l5.7,8.7
	l-47.5,37.5l-91-92.5L153.3,188z"/>
<path class="st2" d="M18.2,232.7c0,0,14.5,16.8,23,21.2c8.5,4.4,14.8,6.5,25.2,2.6c10.4-4,81.5-69.1,81.1-69.8c-0.5-0.7,0,9.1,0,9.1
	l-92.4,91.8L9.3,243.9L18.2,232.7z"/>
<path class="st1" d="M188.9,145.7c0.7-0.2,31.6-35.1,43.2-56.1s13.6-54.1,12.2-60.3s-3-12-3-12l5.3-3.5l40.1,35.3L188.9,145.7z"/>
<g>
	<g>
		<path d="M235.7,289.8c1.3,0.9,2.9,1.1,4.4,1.7c-1.5-2.7-3.1-5.4-4.6-8.1c0,0.2-0.1,0.4-0.2,0.7c0.9-1.2,1.8-2.4,2.7-3.6
			c0.7-0.2,0.8-0.2,0.1-0.1c-2.6,0.6-4.1,3.1-4.3,5.6c-0.3,4.5,4.2,6.8,7.9,7c2.5,0.2,5-0.5,7.1-1.9c3.4-2.1,4.4-6.6,1.9-9.9
			c-1.1-1.5-2.6-2.3-4.4-2.5c-2.3-0.3-3.9,0.5-5.6,1.8c0.5-0.4,0.8-0.4,0.2-0.2c0.3-0.1,1.7-0.2,1-0.3c-0.3,0-1.1-0.2-0.4,0.1
			c0.6,0.2,1.3,0.4,1.8,0.9c-2.3-2.3-6.6-2.5-8.9,0c-2.2,2.4-2.6,6.5,0,8.9c2,1.8,4.3,2.7,7,2.6c0.5,0,1-0.1,1.6-0.2
			c0.4-0.1,0.9-0.1,1.3-0.2c-0.2,0-0.4,0.1-0.7,0.1c0,0,0.9-0.1,1-0.1c0.9-0.1,1.8-0.2,2.7-0.4c-1.7-4.1-3.5-8.2-5.2-12.3
			c-0.6,0.3-0.5,0.3,0.4-0.1c-0.3,0.1-0.5,0.2-0.8,0.3c-0.3,0.1-0.6,0.2-0.8,0.2c1.1-0.1,1.2-0.2,0.5-0.1c-2.8,0-5.1,0.8-6.7,3.3
			c1.7,2.9,3.3,5.8,5,8.8c1-0.1,1.9-0.2,2.9-0.5c-1.1,0-2.1,0-3.2,0c0.8,0.2,1.6,0.3,2.4,0.3c3.3,0.2,6-2.7,6.4-5.7
			c0.4-3.1-1.5-6.4-4.7-7.2c-2.1-0.5-4.3-0.9-6.4-0.3c-2.4,0.6-4.1,2.7-4.4,5.1C232.5,286.2,233.6,288.5,235.7,289.8L235.7,289.8z"
			/>
	</g>
</g>
<g>
	<g>
		<path d="M296.5,241.4c-0.9-3.9-4.8-6.5-7.8-8.9c-2.9-2.3-5.3-5.3-8.3-7.4c-4.1-2.8-8.3,1.8-7.6,5.9c0.7,4.1,4.3,7.1,7.4,9.6
			c3.1,2.5,6.2,6,9.9,7.4C294,249.4,297.3,245,296.5,241.4L296.5,241.4z"/>
	</g>
</g>
<ellipse transform="matrix(0.703 -0.7112 0.7112 0.703 -11.8389 62.6348)" class="st3" cx="69.1" cy="45.5" rx="5.8" ry="14.7"/>
<path class="st3" d="M51,25.3c0.7-0.5,2.3,0.3,3.4,2c1.2,1.6,1.5,3.3,0.8,3.9c-0.7,0.5-2.3-0.3-3.4-2C50.6,27.6,50.3,25.9,51,25.3z"
	/>
</svg>
