<?xml version="1.0" encoding="utf-8"?>
<!-- Generator: Adobe Illustrator 22.0.0, SVG Export Plug-In . SVG Version: 6.00 Build 0)  -->
<svg version="1.1" id="Layer_1" xmlns="http://www.w3.org/2000/svg" xmlns:xlink="http://www.w3.org/1999/xlink" x="0px" y="0px"
	 viewBox="0 0 293.5 279.3" style="enable-background:new 0 0 293.5 279.3;" xml:space="preserve">
<style type="text/css">
	.st0{fill:#5C2B82;}
	.st1{opacity:0.25;}
	.st2{fill:#FFFFFF;}
	.st3{opacity:0.26;}
</style>
<polygon class="st0" points="159,6.1 139.2,126.5 51.2,48.4 "/>
<path class="st0" d="M67.5,135.9l-37.7-1.1c0,0-5.2,95.1,49.9,120.5c57.1,26.3,120.2,27.1,159.5-11.4c44.4-43.5,43.2-105,18.6-146.5
	C229.6,50,152.6,45.3,152.6,45.3l-7.1,43.5c0,0,40.8,1.7,60.4,19.5c20.8,18.8,28.5,41,19.8,73.8c-9.7,36.6-34.9,49.1-70.3,47.6
	c-41.1-1.7-61.3-13-75.4-36.3S67.5,135.9,67.5,135.9z"/>
<g>
	<g>
		<path d="M154.8,48.6c3.2-5.6,2.9-13.2,3.9-19.5c1.1-7,3.1-13.8,4.2-20.8c0.9-5.7-6.6-7.9-8.7-2.4c-2.6,6.8-3.7,14.4-4.8,21.6
			c-1,6.3-2.9,14.2-0.5,20.3C149.9,50.3,153.3,51.3,154.8,48.6L154.8,48.6z"/>
	</g>
</g>
<g>
	<g>
		<path d="M155.3,8.2c0.1,0.1,0.1,0.2,0.2,0.2c0.9,1.4,2.8,2.4,4.4,1.8c1.7-0.6,2.8-1.5,3.3-3.3c0.4-1.6-0.2-3.8-1.9-4.6
			c-4.8-2.3-11,2.1-15.5,4c-6.4,2.7-12.7,5.4-19,8.2c-6.6,2.9-13.2,5.8-19.8,8.7c-5.8,2.5-13.6,4.5-17.8,9.5
			c-1.5,1.8-0.5,4.6,1.9,4.7c5.8,0.2,11.3-3.3,16.4-5.6c5.7-2.5,11.3-5,17-7.5c5.7-2.5,11.4-4.9,17.1-7.3c3-1.3,6-2.5,9-3.8
			c1.2-0.5,2.4-1,3.6-1.5c1-0.4,2.1-0.9,3.1-1.3c1.6-0.5,1.8-0.7,0.6-0.5c-1-1.3-2-2.6-3-3.9c0,0.1,0,0.3,0,0.4
			c0.7-1.1,1.3-2.3,2-3.4c-0.1,0.1-0.2,0.2-0.4,0.2c1.6,0.2,3.2,0.4,4.8,0.6c-0.1-0.1-0.1-0.1-0.2-0.2
			C158.3,0.5,152.8,4.4,155.3,8.2L155.3,8.2z"/>
	</g>
</g>
<g>
	<g>
		<path d="M94.3,33.3c0,0,0,0.1,0,0.1c0.2,0.5,0.9,0.5,1,0c0,0,0-0.1,0-0.1C95.7,32.4,94,32.3,94.3,33.3L94.3,33.3z"/>
	</g>
</g>
<g>
	<g>
		<path d="M94,29.9c-8.4,2.2-16.3,5.3-24.2,8.6c-6.9,2.8-16,6.1-21.3,11.4c-2.7,2.7,0,7.3,3.7,6.4c3.9-1,7.3-3.4,10.9-5.3
			c3.5-1.9,7.1-3.6,10.7-5.4c7.3-3.7,15.1-6.7,22.7-10C99.6,34.1,97.3,29,94,29.9L94,29.9z"/>
	</g>
</g>
<g>
	<g>
		<path d="M49.1,55.6c6.8,5.6,13.8,10.9,20.8,16.3c7.2,5.5,14.1,11.5,21.5,16.6c3.5,2.4,7.2-2.8,4.4-5.7C89.6,76.3,82,70.9,75,65.4
			C68,60,61,54.7,54,49.3C50.4,46.6,45.6,52.7,49.1,55.6L49.1,55.6z"/>
	</g>
</g>
<g>
	<g>
		<path d="M90,86.5c6.8,9.1,16.6,16.2,24.9,24c7.9,7.5,15.9,14.9,25,21.1c4.2,2.9,8.2-4,4-6.9c-9-6.1-16.8-13.6-24.6-21.1
			c-7.8-7.5-15.6-15.8-24.5-21.8C91.9,80,87.9,83.8,90,86.5L90,86.5z"/>
	</g>
</g>
<g>
	<g>
		<path d="M143.6,88c-5.3,11.9-2.4,25.1-5.3,37.5c-1.3,5.5,7.1,7.8,8.4,2.3c2.9-12.1,1.2-24.7,4.1-36.8
			C151.8,87,145.5,83.8,143.6,88L143.6,88z"/>
	</g>
</g>
<g>
	<g>
		<path d="M154.1,46.2C154.2,46.2,154.2,46.1,154.1,46.2C154.1,46.1,154.1,46.2,154.1,46.2L154.1,46.2z"/>
	</g>
</g>
<g>
	<g>
		<path d="M154.2,43c-0.2-0.1-0.4-0.2-0.6-0.4c-1,2.5-2.1,4.9-3.1,7.4c5.4,0.9,10.8,0.8,16.2,1.6c5.3,0.8,10.5,1.8,15.7,3
			c4.7,1,9.3,2.3,13.9,3.7c4.3,1.3,9.6,4.5,14.1,3c1.7-0.6,2.6-2.5,1.7-4.1c-2.4-4.2-8.4-5.2-12.7-6.7c-5.1-1.7-10.2-3.2-15.4-4.4
			c-10.4-2.5-22.8-6.3-33.5-3.8c-5.4,1.3-2.5,9.8,3.1,7.4c0.2-0.1,0.4-0.2,0.6-0.3C156.8,48.2,156.3,44.3,154.2,43L154.2,43z"/>
	</g>
</g>
<g>
	<g>
		<path d="M206.4,60.3c3.4,3.1,7.9,5.1,11.8,7.5c4,2.5,7.9,5.1,11.7,7.9c7.8,5.8,15.9,12.4,21.6,20.5c4.2,6,8,12.4,11.1,19
			c3.8,8.2,4.3,17.3,7.5,25.6c1.7,4.3,8.5,2.6,7.1-1.9c-2.7-8.8-3.5-17.7-7.3-26.2c-3.3-7.4-7.6-14.5-12.3-21.2
			c-5.8-8-13.5-14.6-21.3-20.5c-4.1-3.1-8.3-6.1-12.7-8.8c-4.3-2.7-9.1-6-14.1-7C206.6,54.5,204,58.1,206.4,60.3L206.4,60.3z"/>
	</g>
</g>
<g>
	<g>
		<path d="M268.6,136.4c1.7,16.4-0.7,33-4,49c-3.4,16.5-9,32.7-20.2,45.5c-9.7,11.2-21.5,21.4-35,27.7c-5.7,2.6-11.4,4.8-17.5,6.5
			c-6.4,1.8-15,1.9-20.2,6.3c-1.7,1.4-0.5,3.7,1.2,4.4c6.7,2.6,16.3-1.3,22.9-3.2c6.4-1.8,12.4-4.3,18.5-7.1
			c14.6-6.7,27.8-18.3,37.9-30.6c11.2-13.6,17.4-30.1,20.9-47.2c3.6-17.1,6.5-35,3.9-52.5C276.3,130.6,268.2,131.7,268.6,136.4
			L268.6,136.4z"/>
	</g>
</g>
<g>
	<g>
		<path d="M146.4,94.2c7.2,0.5,14,0.5,21.1,2.2c6.8,1.6,13.2,3.9,19.5,7c12.1,5.9,22.8,16.5,29.5,28.2c14,24.2,4,53.2-9.5,75
			c-3.1,5,4.8,9.6,7.9,4.6c15.6-25,25.8-57.9,9.3-85.1c-7.9-13.1-19.7-24.3-33.4-30.9c-13.6-6.6-30.2-13.8-45.6-10.3
			C139.7,86.2,141.3,93.9,146.4,94.2L146.4,94.2z"/>
	</g>
</g>
<g>
	<g>
		<path d="M209,204c-6.5,6.3-13.3,12.6-21.8,16.1c-7.9,3.2-17.2,5.1-25.6,5.9c-4.9,0.4-9.6-0.4-14.4-1.3c-4.1-0.7-8.2-1-12.2-1.7
			c-7.1-1.2-15-6.1-21.9-3c-2.4,1.1-2.5,4.5-0.8,6.2c2.9,2.9,6.5,3.6,10.3,4.7c4.4,1.3,8.9,2.3,13.4,2.8c10,1.1,19.5,3.3,29.6,1.6
			c9-1.5,18.4-3.7,26.7-7.5c8.8-4.1,15.9-10.9,22.7-17.7C219,206.1,213,200.1,209,204L209,204z"/>
	</g>
</g>
<g>
	<g>
		<path d="M64.4,136.4c0.9,10.6,2,21.2,4,31.7c1.9,10.3,4.4,21.4,9.9,30.4c4.9,8.1,12.9,14.5,20.4,20.1c3.7,2.7,7.5,5.5,11.7,7.3
			c2.1,0.9,4.3,1.8,6.6,2c2.6,0.2,4.7-0.7,7.2-1.1c3.3-0.5,2.5-5,0-6c-2-0.8-3.7-2.4-5.8-3.3c-2.1-0.8-4.2-1.5-6.2-2.5
			c-3.5-1.6-6.7-3.8-9.8-6.1c-6.7-5.1-13.9-10.7-17.7-18.3c-8-16.5-9.3-36.4-11.6-54.3C72.4,131,63.9,130.7,64.4,136.4L64.4,136.4z"
			/>
	</g>
</g>
<g>
	<g>
		<path d="M69.2,132.2c-6-1.7-13.3-0.9-19.5-0.6c-6.8,0.4-13.6,0.4-20.4,1c-5.9,0.5-6.1,9.3,0,9.3c3.5,0,6.8,0.6,10.3,0.7
			c3.4,0.1,6.7-0.3,10.1-0.5c6.3-0.3,13.4,0.3,19.5-1.3C73.5,139.7,73.4,133.4,69.2,132.2L69.2,132.2z"/>
	</g>
</g>
<g>
	<g>
		<path d="M33.7,138.5c0-0.4-0.1-0.8-0.1-1.2c-0.3-3-4.4-4.7-6.1-1.6c-3.3,6.2-3,14-2.1,20.8c0.5,3.7,1.5,7.2,2.2,10.8
			c0.7,3.8,0.7,7.7,1.2,11.6c1.5,12.7,4.7,26.2,9.9,38c5.5,12.3,14.4,23,24.6,31.9c4.3,3.7,8.7,7.5,13.5,10.7
			c2.6,1.7,5.4,3.3,8.2,4.6c3.9,1.8,5.5,1.5,9.5,0.8c2.1-0.3,2.9-3.5,1.3-4.9c-2.4-2-3.7-3.2-6.7-4.6c-2.7-1.2-5.2-2.5-7.6-4.1
			c-4.7-3-8.8-6.7-12.8-10.5c-4.4-4.2-8.3-8.7-12.1-13.5c-3.8-4.7-7.7-9.4-10.2-15c-4.7-10.6-8.1-23.6-9.2-35.2
			c-0.6-6.4-1.5-12.5-2.6-18.8c-1.3-7.1-0.1-14.1-1-21.1c-1.1,1.1-2.2,2.2-3.3,3.3c0.4,0,0.8,0.1,1.2,0.1
			C32.6,140.7,33.8,139.6,33.7,138.5L33.7,138.5z"/>
	</g>
</g>
<g>
	<g>
		<path d="M178.5,269.2c-8.5-0.2-16.9,0.4-25.4,0.1c-8.5-0.3-17-1.5-25.4-3.1c-6.3-1.2-12.7-2.3-19-3.8c-3.6-0.8-7.2-2-10.7-3.3
			c-4.1-1.6-7.6-3.9-12.1-3.1c-2.2,0.4-3.5,3.6-2.2,5.3c2.7,3.6,6.9,4.7,11,6.4c3.6,1.4,7.2,2.7,10.9,3.5c7.1,1.7,14.2,3,21.4,4.2
			c17.2,3,35,4.1,52.3,0.5C183.4,275.1,182.3,269.3,178.5,269.2L178.5,269.2z"/>
	</g>
</g>
<g>
	<g>
		<path d="M81.8,257.8C81.8,257.8,81.8,257.8,81.8,257.8C81.7,257.8,81.7,257.8,81.8,257.8L81.8,257.8z"/>
	</g>
</g>
<g>
	<g>
		<path d="M77.7,258.5c0.9,0.8,1.5,1.7,2.4,2.4c0.9,0.8,2,1.4,3.1,2.1c2,1.2,4.1,2.3,6.3,3.2c5.8,2.6,9.3-5.6,3.4-8.1
			c-1.8-0.8-3.6-1.6-5.4-2.5c-0.8-0.4-1.6-0.8-2.4-1.2c-1.1-0.5-2.3-0.7-3.4-1.2C78.5,251.7,74.6,256,77.7,258.5L77.7,258.5z"/>
	</g>
</g>
<g>
	<g>
		<path d="M24.5,135.9c-0.5,1.4-0.6,3.1-0.6,4.6c-0.1,1.7,0.2,3.4,1,5c0.8,1.5,2.5,2.3,4.2,2.4c1.7,0.1,3.3-0.9,4.1-2.3
			c0.5-0.8,0.7-1.6,0.7-2.5c0,0.8-0.3-3.1-0.2-1.1c0-0.7-0.2-1.4-0.3-2c0-0.3-0.2-1.1-0.1-0.4c-0.1-1.2-0.1-2.4-0.4-3.6
			c-0.5-1.8-2.3-3.3-4.2-3.2C26.7,132.8,25.3,134,24.5,135.9L24.5,135.9z"/>
	</g>
</g>
<path class="st1" d="M61.5,234.1c0,0,74.1,38.4,123.2,11.1s64.6-61.7,68.3-94.2c3.7-32.5-4.2-65.6-4.2-65.6s24.3,37.5,24.9,57.9
	s-6.6,63.5-17.1,77.8c-10.5,14.3-26.3,38.7-61.9,48.2c-35.6,9.5-89.7-5.1-89.7-5.1s-34.2-9.8-40.8-23.1
	C57.7,227.8,61.5,234.1,61.5,234.1z"/>
<ellipse transform="matrix(0.8993 -0.4373 0.4373 0.8993 -6.495 53.6131)" class="st2" cx="113.2" cy="40.9" rx="17.4" ry="6.8"/>
<ellipse transform="matrix(0.9585 -0.285 0.285 0.9585 -2.7732 40.7628)" class="st2" cx="138.7" cy="29.9" rx="4.3" ry="1.9"/>
<path class="st3" d="M54.2,50.8c-0.8,0,22.9,9.6,50.9,15.5s45.2,19.1,45.2,19.1l-8.5,40L54.2,50.8z"/>
</svg>
