<?xml version="1.0" encoding="utf-8"?>
<!-- Generator: Adobe Illustrator 22.0.0, SVG Export Plug-In . SVG Version: 6.00 Build 0)  -->
<svg version="1.1" id="Layer_1" xmlns="http://www.w3.org/2000/svg" xmlns:xlink="http://www.w3.org/1999/xlink" x="0px" y="0px"
	 viewBox="0 0 293.5 279.3" style="enable-background:new 0 0 293.5 279.3;" xml:space="preserve">
<style type="text/css">
	.st0{fill:#F2D43D;}
	.st1{opacity:0.11;}
	.st2{opacity:4.000000e-02;}
	.st3{fill:#FFFFFF;}
</style>
<polygon class="st0" points="233.1,275.2 145.2,231.8 56.8,274.2 70.9,177.2 3.2,106.2 99.8,89.7 146.4,3.4 192,90.2 288.5,107.8 
	220,178 "/>
<g>
	<path d="M144,18.9c9.7,19.9,27.9,54.9,44.4,75.3l2.4,3l3.8,0.5c41.9,6,67.8,10.6,81.5,13.6c-3.2,3.1-6.8,6.7-10.2,10
		c-45,44.2-51.5,52.3-52.1,59.2c-0.5,6.7,5.2,52.8,9.1,82.1l-72.8-35.5l-4.7-2.3l-4.5,2.7c-0.4,0.2-34.9,20.5-75.4,36.8l11.1-78.7
		c0.9-6.1-1.1-12.2-5.3-16.8L17,110.5c18.3-4,52.6-11.1,82-14.1l6.1-0.6l2.1-5.8C118.2,58.9,134,33.3,144,18.9 M145.8,0
		c0,0-30,36.1-47.8,86.6C54.5,91.2,1.5,104,1.5,104c-1.4,0.3-2,2-1,3.1l63.6,68.4c2.2,2.4,3.2,5.6,2.8,8.8l-13.4,95.1
		c48.2-17.4,92.4-43.5,92.4-43.5l89.1,43.5c0,0-12-90-11.4-98c0.6-8,68.3-70.4,69.9-74.2c1.6-3.8-51.5-12.5-97.5-19.1
		C172.9,59.7,145.8,0,145.8,0L145.8,0z"/>
</g>
<path class="st1" d="M287,109.3c0,0-13,10.5-53,21.5s-88.2,9.2-88.2,9.2s24.3,19.4,48.2,60.3c19.7,33.8,34.4,71.1,34.4,71.1l-7-91.1
	L287,109.3z"/>
<path class="st2" d="M144,9c-1.4-1.1-6.5,46.6-5.8,78.2c0.7,31.6,7.6,52.8,7.6,52.8s17.7-12,30-24.2s17.3-23.7,17.3-23.7L144,9z"/>
<path class="st2" d="M145.8,140c0,0,0.5,31.7,0,50.3s0,42.7,0,42.7l-88.8,39.1c0,0,31.9-32.8,51.2-62.4S145.8,140,145.8,140z"/>
<path class="st2" d="M145.8,140c0,0-18.8,1.4-61.1-6.2c-42.4-7.6-78-25.8-78-25.8l93.2-18.3c0,0,8,11.5,21.2,25.2
	S145.8,140,145.8,140z"/>
<ellipse transform="matrix(0.9988 -4.988731e-02 4.988731e-02 0.9988 -5.2001 4.3465)" class="st3" cx="84.5" cy="106.3" rx="17.4" ry="5.9"/>
<ellipse transform="matrix(0.9988 -4.988731e-02 4.988731e-02 0.9988 -5.3493 3.0945)" class="st3" cx="59.3" cy="108.7" rx="4.3" ry="1.9"/>
<ellipse transform="matrix(0.2392 -0.971 0.971 0.2392 55.9331 165.7627)" class="st3" cx="133.7" cy="47.2" rx="11.4" ry="4.5"/>
<ellipse transform="matrix(0.3941 -0.919 0.919 0.3941 56.7203 145.6927)" class="st3" cx="138.9" cy="29.8" rx="2.8" ry="1.3"/>
</svg>
