<?xml version="1.0" encoding="utf-8"?>
<!-- Generator: Adobe Illustrator 22.0.0, SVG Export Plug-In . SVG Version: 6.00 Build 0)  -->
<svg version="1.1" id="Layer_1" xmlns="http://www.w3.org/2000/svg" xmlns:xlink="http://www.w3.org/1999/xlink" x="0px" y="0px"
	 viewBox="0 0 630 695" style="enable-background:new 0 0 630 695;" xml:space="preserve">
<style type="text/css">
	.st0{fill:#2788EB;}
	.st1{opacity:0.25;}
	.st2{fill:#F9F9F9;}
	.st3{fill:#FFFFFF;}
</style>
<path class="st0" d="M322.4,626.4c74.8,0,287.3-48.5,287.3-323.9c0-248-287.3-277.9-287.3-277.9S25.2,23.6,25.2,355.4
	C25.2,597.6,322.4,626.4,322.4,626.4z"/>
<path class="st1" d="M36,430.5c27.4,38,337.4,89.1,432.2-14.8c94.8-103.9,100-217.7,78.3-272.1c84,87.9,104.1,304.9-63.7,423.4
	S85.2,596.6,36,430.5z"/>
<path class="st2" d="M314.7,77.9c47.7-3.2,108.6,7.9,108.6,60.7c0,52.7-51.2,68.9-117.1,68.9s-103.8-35.2-103.8-64
	C202.4,114.7,265.1,81.3,314.7,77.9z"/>
<path class="st2" d="M228.9,287c0,0-37.9,87,40.5,105c22,91,0.1,111.1-9,116.6c-9.1,5.5-52.7,20-53.7,145
	c113.9,48.3,240.8-8.7,240.8-8.7s-1-54.6-6.5-78.1c-5.5-23.5-67.5-47.2-65.7-98.3c1.8-51.1,8.2-76.4,8.2-76.4s66.9,24.8,43-107.1
	C366.1,247.8,228.9,287,228.9,287z"/>
<ellipse transform="matrix(0.5 -0.866 0.866 0.5 -124.0014 206.5669)" class="st3" cx="116.9" cy="210.7" rx="73.9" ry="30.1"/>
<circle class="st3" cx="74.8" cy="325.5" r="23.2"/>
<path class="st1" d="M208.6,613.9c0,0,79.3,25.7,198.4,7.4c-4-62.1-64.1-67.2-64.1-102.3c0-35.1,0-136.6,0-136.6
	s49.3,3.8,56.1-103.9l27.5,6.4c0,0,27.6,106.8-43,107.1c-3.6,93.3-0.1,118.5,13,129.2c13.2,10.7,47.4-4.1,50.9,123.6
	c-88.1,48.4-240.8,8.7-240.8,8.7L208.6,613.9z"/>
<path class="st1" d="M213.4,171.4c0,0,122.2,25.4,161.4-12.9c39.2-38.3,6.5-69,6.5-69s90.4,47.6,0,104.8
	C334.7,226.9,239.8,195.2,213.4,171.4z"/>
<g>
	<path d="M328,80.7c-23.1-5.8-46.4-1.6-68.2,7.2c-19.7,8-43.5,19.9-53.6,39.7c-9.2,18.1-6.6,40,9,53.6
		c15.8,13.8,38.4,19.2,58.2,24.2c44.4,11.2,95.3,12,130.9-21.2c14.8-13.8,25.5-33.8,24.7-54.5c-0.8-22-15.9-37.9-35.2-46.4
		c-23.2-10.3-50.3-13.2-75.4-11.3c-26.2,1.9-53.2,9.3-75.4,23.8c-1.6,1-0.6,4.1,1.4,3.3c9.9-3.9,19.6-8.1,30-10.5
		c10.5-2.4,21.2-4.8,31.9-6c20.7-2.3,41.8-1.2,62.2,3.4c16.8,3.8,35.9,10.7,45.2,26.4c10.2,17.2,3.6,39.4-7.5,54.4
		c-24.4,33.1-69,39.6-107.1,33.6c-20.4-3.2-41.9-8.3-60.8-16.7c-16.1-7.1-29.6-19-27.7-38.1c2.3-23.5,26.1-37.7,44.8-47.8
		c22-11.9,47.2-20,72.4-16.4C328.2,81.3,328.4,80.8,328,80.7L328,80.7z"/>
</g>
<g>
	<path d="M229.1,284.3c-5.7,1.8-5.8,8.6-6.7,13.5c-1.2,7-1.8,14.1-2.1,21.2c-0.5,14-0.1,28.8,3.2,42.5c2.6,11.1,9.7,19.6,19.9,24.6
		c8.7,4.3,21.2,8.6,31,7.3c4.3-0.6,5-7.6,1.2-9.4c-4.4-2.1-9.4-2.4-14.1-3.5c-4.7-1.1-9.3-2.5-13.6-4.7c-10.2-5.4-13.5-14.1-15-25.1
		c-1.8-13-2.5-26.3-1.8-39.4c0.3-6.3,1-12.6,1.5-18.9C232.5,291.2,232.1,283.3,229.1,284.3L229.1,284.3z"/>
</g>
<g>
	<path d="M215,647.7c3.9-20.1,5.7-40.4,8-60.7c1.8-15.1,4.3-32.7,14.9-44.5c6.2-6.8,14.6-9.7,22.1-14.6c6.8-4.4,12.3-10.5,16.2-17.6
		c8.3-15.3,9.9-33.5,10.7-50.6c1.1-23.6-1.2-47.3-6.4-70.4c-1.6-7-12.2-4-10.8,3c4.3,20.3,6.1,41,5.6,61.7
		c-0.4,16.9-1.1,36-9.5,51.1c-4.3,7.7-10.4,12.5-18,16.7c-7.2,3.9-13.9,8.1-19.1,14.5c-9.8,12.2-13.5,28-15.1,43.3
		c-2.3,22.3-3.1,45.2-2.3,67.6C211.6,649.2,214.6,649.8,215,647.7L215,647.7z"/>
</g>
<g>
	<path d="M426.5,284.4c-4.1,3.4-2.5,9-2.1,13.7c0.5,6.3,1,12.7,1.1,19c0.3,12.4-0.5,25-2.6,37.2c-1.8,10.3-6.2,17.6-15.7,22.2
		c-4.1,2-8.6,3.3-13.1,4.3c-4.5,1-9.3,1.3-13.4,3.3c-3.7,1.8-3.1,8.8,1.2,9.4c5.5,0.7,11.3-0.8,16.6-2.1c5.4-1.3,10.7-3.2,15.6-5.8
		c10.9-5.8,17.2-15.4,19.4-27.4c2.7-14.7,3.2-29.9,2.2-44.8c-0.5-7.1-1.4-14.1-2.8-21.1C432.6,290.9,429.5,282,426.5,284.4
		L426.5,284.4z"/>
</g>
<g>
	<path d="M444.7,647.3c0.7-20.3-0.3-40.7-1.8-61c-1.1-15.3-3.5-31.6-12-44.8c-4.4-6.8-10.1-12.3-17.1-16.4
		c-7.3-4.3-14.9-7.6-20.2-14.5c-10.3-13.2-11.8-31.9-12.7-48c-1.3-23.5,0.5-47.2,5.3-70.2c1.5-7-9.2-10-10.8-3
		c-4.5,20.3-7,41-6.7,61.8c0.3,17.7,1.3,36.7,8.2,53.2c3.2,7.6,7.7,14.6,14,19.9c6.9,5.7,15.5,8.4,22.5,13.9
		c12.7,10,16.3,27,18.6,42.1c3.4,22.4,4.6,45.1,8.9,67.4C441.6,649.8,444.7,649.2,444.7,647.3L444.7,647.3z"/>
</g>
<g>
	<path d="M232,286.7c7.5-0.3,15.1-2.5,22.5-3.8c8-1.4,16-2.9,24-3.9c16.1-2,32.2-3.2,48.4-3.1c32.4,0.2,64.1,5.1,95.3,14
		c6.4,1.8,9.1-8,2.7-9.9c-31.5-9.9-65-14.7-98-14.7c-16.3,0-32.7,1.1-48.9,3.7c-8.1,1.3-16.3,2.8-24.2,4.8c-7.7,1.9-16.3,4-23.2,8
		C228.4,283,229.3,286.8,232,286.7L232,286.7z"/>
</g>
<g>
	<path d="M227.1,303c2.2-1.9,2.6-4.8,3.3-7.5c1-3.7,1.1-7.2,1.3-10.9c-1.2,1.6-2.4,3.2-3.6,4.8c19.7-5,39.5-7.6,59.8-8.9
		c10.2-0.7,20.5-1.2,30.7-1.8c5.2-0.3,10.5-0.6,15.7-1c4.9-0.4,10.3-0.2,14.9-1.8c3.9-1.4,4.6-7.6,0-8.7c-4.9-1.1-10-0.4-14.9-0.2
		c-5.6,0.2-11.1,0.5-16.7,0.9c-10.5,0.6-21.1,1.2-31.6,2c-20.3,1.5-41.1,3.5-60.5,9.9c-2,0.7-3.7,2.5-3.6,4.8
		c0.1,3.8,0.2,7.3,1.2,10.9c0.7,2.7,1,5.6,3.2,7.5C226.5,303.2,226.8,303.2,227.1,303L227.1,303z"/>
</g>
<g>
	<path d="M212.1,648.8c7.4,5.2,18.2,7,26.8,8.9c9.6,2.1,19.2,3.9,28.9,5.3c19.2,2.8,38.6,4.1,58,4.1c19.4-0.1,38.8-1.6,58-4.5
		c19.5-2.9,38.2-8.6,57.2-13.6c5.2-1.4,2.8-9.9-2.2-8.1c-17.8,6.4-37,9.7-55.6,12.6c-19,3-38.2,4.5-57.4,4.7
		c-19.2,0.1-38.5-1.1-57.5-3.9c-9.1-1.3-18.2-3-27.1-5c-8.9-1.9-18.8-5.7-27.9-5.3C210.7,644.1,210,647.3,212.1,648.8L212.1,648.8z"
		/>
</g>
<g>
	<path d="M440.8,592.8c47.1-19.3,87.3-54.8,117-95.7c29.9-41.1,49.5-89.6,55.9-140.1c6.4-51.3-2.4-103.5-22.9-150.7
		c-20.5-47.3-53-89.3-93.9-120.7c-42-32.3-92.3-51.5-144.9-57.1c-52.7-5.6-106.7,2.9-155.3,24c-49.8,21.7-92.2,57.8-123,102.4
		c-31.8,46-50.7,100.7-54,156.5c-3.5,58.7,10.1,118.8,40.2,169.5c27.2,45.8,67.7,83.9,115.4,107.7c11.7,5.8,23.8,10.8,36.2,14.9
		c7.5,2.5,10.7-9.3,3.2-11.8c-48.8-16.1-91.9-47-124-87.1C56,461,36,406.5,32,351C24.4,244,77.5,135.4,170.2,79.8
		c87-52.1,202.3-55.1,290.4-3.9c85,49.4,141.5,145.1,143,243.6c1.4,98.3-53.1,194.5-136.2,246.3c-9.9,6.2-20.3,12-30.7,17.3
		C431.4,585.8,435.1,595.1,440.8,592.8L440.8,592.8z"/>
</g>
<g>
	<path d="M323.1,21.9c-27.2-6-56.4-0.1-82.9,7.2c-26.9,7.4-53,18.5-77,32.7c-48.8,28.8-89.5,70.6-115.8,121
		C20.9,233.7,8.4,292,12.1,349.4c3.6,55.1,22.3,108.3,53.8,153.6c30.5,43.9,72.1,80.5,120.3,103.9c6.1,3,12.4,5.7,18.7,8.3
		c3.5,1.4,7.6-1.6,8.5-4.8c1.1-4-1.4-7.1-4.8-8.5C161.4,582.4,120,550,88.4,510.1c-32.3-40.8-53.8-90.2-60.6-141.8
		c-7.2-54.2,0.8-110.7,22.8-160.7c22-50.1,57.7-93.1,102.9-123.8c22.2-15.1,46.3-27.3,71.6-36.1c25.6-8.9,51.7-13.1,78.5-16.8
		c6.6-0.9,13-2.2,19.5-3.7C325.8,26.8,325.8,22.5,323.1,21.9L323.1,21.9z"/>
</g>
<g>
	<path d="M224.3,44.8c14.5-2.2,28.5-6.6,42.9-9.4c14.3-2.8,28.7-4.7,43.3-5.3c29.2-1.2,58.6,2,86.9,9.5
		c57.1,15.1,108.1,47.6,145.2,93.6c36.2,44.8,58.8,101.1,64.4,158.4c5.6,57.2-6.1,114.8-32.8,165.7c-26.5,50.6-66.4,94-115,124
		c-6,3.7-11.9,7.3-18.1,10.7c-7.3,4-0.9,14.7,6.5,11.1c53.2-26.4,98.3-70.4,129-121c31-51.2,47.9-110.7,46-170.7
		c-1.9-60.6-21.6-120.7-56.4-170.3c-35.3-50.4-85.4-88.2-143.6-108.3c-29-10-59.7-15.7-90.4-16.4c-30-0.7-61.4,2.6-89.8,12.7
		c-7.4,2.7-13.9,5.5-20.4,10C218.9,41.2,220.9,45.3,224.3,44.8L224.3,44.8z"/>
</g>
<g>
	<path d="M221.2,281.5c-2.7,1.4-3,4-4,6.8c-1.3,3.7-2,7.5-2.7,11.3c-1.6,7.9-2.1,16-2.4,24c-0.5,14.3-0.8,29.2,2.3,43.3
		c2.8,12.5,9.7,23.3,20.7,30.1c5.1,3.1,10.8,5.3,16.5,7.1c6.3,1.9,12.8,4.1,19.4,2.7c5.2-1.1,5.2-7.9,1.4-10.5
		c-4.6-3.2-10.3-3.6-15.6-5.1c-5.1-1.4-10.1-3.3-14.6-6c-9.6-5.8-13.8-15.7-15.4-26.5c-1.9-12.8-1.7-26.1-1.6-39
		c0.1-7.2,0.2-14.3,0-21.5c-0.1-4.7,1.2-13-2.5-16.4C222.2,281.3,221.7,281.2,221.2,281.5L221.2,281.5z"/>
</g>
<g>
	<path d="M212.7,651.4c1.5-4.9,0.9-9.5,0.6-14.5c-0.3-5.2-0.7-10.4-0.9-15.6c-0.5-10.4-0.7-20.9,0.3-31.2
		c1.6-16.2,6.8-33.1,17.2-45.9c11.1-13.5,28.1-20.3,37.8-35.2c9.2-14,11.7-31.6,11.5-47.9c-0.2-22.3-5.7-44.8-1.2-67
		c1.9-9.3-12.4-13.3-14.3-3.9c-4.2,20.8-1,41.4,0.2,62.2c0.9,16.1,0.4,33.7-8.2,47.9c-4.6,7.6-11.5,12.8-18.5,18
		c-7.1,5.2-13.7,10.7-19.1,17.7c-10.7,13.7-16.5,30.4-18.7,47.5c-1.5,11.3-1.5,22.7-0.3,34c0.7,6.1,1.4,12.1,2.6,18.1
		c1.1,5.8,1.7,11.6,4.9,16.7C208.2,654.6,211.9,654.2,212.7,651.4L212.7,651.4z"/>
</g>
<g>
	<path d="M214.4,572.7c-5.7,1.4-8.3,10.6-10,15.5c-2.5,7-4.1,14.4-5.1,21.7c-1,7.4-1.6,14.9-1.5,22.3c0.1,7.4,0,16.2,2.7,23.1
		c2.5,6.5,12,5.7,12.4-1.7c0.4-7-1.2-14.3-1.4-21.4c-0.2-6.9,0-13.7,0.7-20.6c0.7-6.9,1.8-13.7,3.1-20.5c0.9-4.9,4.1-13.3,1-17.7
		C215.9,572.8,215.2,572.5,214.4,572.7L214.4,572.7z"/>
</g>
<g>
	<path d="M202.1,655.8c4.9,5.5,13.5,7.9,20.4,10c7.8,2.4,15.8,4.1,23.8,5.7c16,3.2,32.4,5.2,48.7,6.3c32.4,2.2,65,0.3,97-5.3
		c18.2-3.2,36.2-7.7,53.7-13.4c9-2.9,5.1-17.3-3.9-14.3c-60.2,19.9-124.8,24.7-187.3,14c-8.7-1.5-17.2-3.3-25.9-5.1
		c-7.9-1.6-17.3-4.6-25.3-2.6C201.1,651.7,200.7,654.3,202.1,655.8L202.1,655.8z"/>
</g>
<g>
	<path d="M210.3,650.8c0.3,0.8,0.6,1.3,1.4,1.6c0.6,0.3,1.3,0.6,1.9,0.9c0.7,0.4,1.6,0.3,2.2-0.3c0.6-0.6,0.7-1.6,0.3-2.2
		c-0.1-0.2-0.3-0.8-0.5-1.1c-0.2-0.3-0.5-0.6-0.7-1c-0.8-1-2.1-1.5-3.2-0.6c-1.1,0.8-1.1,2.2-0.2,3.2c0.3,0.3,0.5,0.6,0.8,0.9
		c0.3,0.3,0.7,0.6,0.9,0.8c0.6-1,1.2-2.1,1.8-3.1c-0.7-0.2-1.4-0.4-2-0.6c-0.4-0.1-0.8-0.2-1.2-0.2c-0.4,0.1-0.7,0.2-1,0.4
		C210.4,649.9,210.2,650.4,210.3,650.8L210.3,650.8z"/>
</g>
<g>
	<path d="M430.6,284.1c-2.5,12.4-1.9,25.4-2.5,38c-0.6,12.9-1.3,26.2-3.6,38.9c-1.9,10.2-6.7,17.6-15.7,22.8
		c-8.4,4.7-17.9,7-27.2,9.2c-8.9,2.1-5.1,15.7,3.8,13.7c21.5-5,44.8-13.2,51.5-36.8c3.8-13.3,4.1-28.2,4.7-41.9
		c0.6-14.3,1.5-30-2.8-43.8C437.7,280.3,431.5,279.8,430.6,284.1L430.6,284.1z"/>
</g>
<g>
	<path d="M383.8,396.1c-8.6,17.9-9.4,39.3-9.6,59c-0.2,17,0.1,35.2,6.3,51.3c2.8,7.3,6.7,14.1,12.3,19.5c6.2,6,13.8,9.2,21.3,13.2
		c15.2,8.1,19.1,23.8,21.7,39.7c3.8,23.2,4.9,46.8,3.7,70.2c-0.5,8.9,13.3,8.9,13.9,0c1.3-20.5,0.8-41.2-1.9-61.6
		c-2.1-16.4-4.4-34.3-14.8-47.8c-5.2-6.9-12.1-11.2-19.7-15c-6.8-3.4-13.5-6.8-18-13.1c-9.1-12.7-10.2-29.7-10.6-44.9
		c-0.3-11.5,0-23,0.8-34.4c0.8-11.5,2.4-22.6,1.6-34.1C390.6,394.6,385.6,392.5,383.8,396.1L383.8,396.1z"/>
</g>
<g>
	<path d="M446.4,655.5C446.4,655.5,446.4,655.4,446.4,655.5C446.3,655.4,446.3,655.5,446.4,655.5L446.4,655.5z"/>
</g>
<g>
	<path d="M440.9,653c4.1,0.2,6.2-4,4.7-7.5c-0.5-1.2-2.5-0.6-2.4,0.7c0.1,2.8,0.1,5.6,0.1,8.4c0,1.2,1.4,2.1,2.5,1.4
		c4.6-2.9,4.3-9.8-0.2-12.6c-1.6-1-3.3,0.9-2.5,2.5c1.1,2.1,2.1,4.9,1.7,7.3c-0.3,1.7,1.2,2.8,2.8,2.2c4.4-1.9,5.1-9,1.5-11.9
		c-1.5-1.2-3.5-0.4-3.7,1.5c-0.4,3.5,0,6.7,1.3,10c0.6,1.5,2.1,1.9,3.4,0.9c3.5-2.9,4.5-8.1,2.1-12c-1-1.6-3.4-1.2-3.9,0.5
		c-1.1,3.5-1.5,7-1,10.6c0.4,2.3,4,1.7,4-0.5c0-0.8,0-1.7,0-2.5c0-2.6-4-2.6-4,0c0,0.8,0,1.7,0,2.5c1.3-0.2,2.6-0.4,4-0.5
		c-0.4-2.7-0.2-5.4,1-7.9c-1.2,0-2.5,0-3.7,0c1.1,2.4,0.6,5.2-1.3,7c1.1,0.1,2.1,0.3,3.2,0.4c-1.1-2.4-1.3-5.3-0.7-7.9
		c-1.2,0.3-2.4,0.6-3.6,0.9c1.7,1.9,1.1,4.3-0.7,5.9c1.1,0.4,2.2,0.9,3.3,1.3c-0.2-3.5-0.6-6.5-2.3-9.6c-0.8,0.8-1.7,1.7-2.5,2.5
		c2.4,1.5,2.2,5.2,0.1,6.9c0.9,0.4,1.9,0.8,2.8,1.2c-0.3-2.8-0.6-5.6-0.8-8.4c-0.8,0.2-1.6,0.4-2.4,0.7c0.9,1.9-0.6,4.5-2.6,5.1
		C440.1,652,440.3,652.9,440.9,653L440.9,653z"/>
</g>
<g>
	<path d="M223,288c8.6,0.7,17.2-1.8,25.6-3.3c8.8-1.6,17.6-3.2,26.5-4.4c17-2.2,34.2-3.4,51.4-3.3c17.2,0.1,34.4,1.3,51.4,3.9
		c8.5,1.3,16.9,2.9,25.3,4.8c8.9,2.1,17.8,5.3,26.8,6.6c6.2,0.9,11.5-7.8,4.7-11.1c-8.2-4-17.3-5.8-26.2-7.8c-9-2-18-3.7-27.1-5.1
		c-17.9-2.7-35.9-4.1-54-4.2c-18.1-0.1-36.1,1.2-53.9,3.9c-9.1,1.3-18.2,2.9-27.1,5.2c-8.5,2.2-17.6,4.3-24.8,9.6
		C219.4,284.5,220.1,287.8,223,288L223,288z"/>
</g>
<g>
	<path d="M319.7,75.6c-5.8-0.4-11.5-0.7-17.3-1.2c-5.2-0.4-11.1,0.9-16.2,1.8c-10.9,2-21.3,5.6-31.4,10
		c-19.3,8.5-39.5,21.6-51.5,39.3c-11.8,17.5-12.3,42.1,5,56.2c8.1,6.6,17.9,10.3,27.6,13.9c11.6,4.2,23.4,8.2,35.3,11.6
		c43.1,12.3,95.3,16.1,132.8-13.1c15.2-11.9,26.6-29.6,26.5-49.4c-0.1-20.3-11.8-38.8-27.5-51c-20-15.4-46.4-18.8-71-18.4
		c-13.7,0.3-27.2,2.3-40.8,4.1c-14.4,2-28.4,5.3-42.1,10.3c-2.3,0.9-2.2,5,0.6,4.7c22.3-2.6,44.8-6.9,67.3-6.7
		c20.1,0.1,39.6-0.4,58.7,7c16.2,6.3,31.1,18.1,37.6,34.7c6,15.5,2,32-8.8,44.3c-26.4,30-71.8,32.1-108.3,24.8
		c-21.3-4.2-42.2-11.3-62.5-18.9c-7.5-2.8-15.6-6.4-20.7-12.9c-5.5-7-5.6-16.5-3-24.7c6.4-19.7,28.5-33.4,45.9-42.3
		c9.6-4.9,19.7-8.8,30.1-11.8c5.4-1.6,11.1-2.4,16.5-4c2.8-0.8,5.1-2.2,8-2.7c3.1-0.6,6.2-0.9,9.3-1.3
		C322.5,79.7,322.6,75.8,319.7,75.6L319.7,75.6z"/>
</g>
</svg>
