<?xml version="1.0" encoding="utf-8"?>
<!-- Generator: Adobe Illustrator 22.0.0, SVG Export Plug-In . SVG Version: 6.00 Build 0)  -->
<svg version="1.1" id="Layer_1" xmlns="http://www.w3.org/2000/svg" xmlns:xlink="http://www.w3.org/1999/xlink" x="0px" y="0px"
	 viewBox="0 0 300 400" style="enable-background:new 0 0 300 400;" xml:space="preserve">
<style type="text/css">
	.st0{fill:#FAD59F;}
	.st1{fill:#5C2B82;}
	.st2{font-family:'Qanelas-ExtraBold';}
	.st3{font-size:57.3603px;}
	.st4{opacity:0.25;}
	.st5{fill:#FFFFFF;}
</style>
<path class="st0" d="M41.5,74.8l-12.2,3.9c0,0-26.4-28.9,0.5-61.2c60.7,20,193.6,18.8,243.6-5.4c18.8,16.8,12.4,48.6,0.8,60.7
	c-4.2-1.4-9.2-2-9.2-2l0.5,188.8c0,0-18,11.8,0.1,25.8c0,22-0.1,99.1-0.1,99.1l-224.1-1.3V141.6c0,0,14.7-13.2,0-24.2
	C41.4,104,41.5,74.8,41.5,74.8z"/>
<text transform="matrix(1 0 0 1 143.2215 140.6612)" class="st1 st2 st3">1</text>
<text transform="matrix(1 0 0 1 139.3211 217.7017)" class="st1 st2 st3">2</text>
<text transform="matrix(1 0 0 1 138.9197 294.7437)" class="st1 st2 st3">3</text>
<path class="st4" d="M266.8,260l-0.5-179.1V72c0,0-42.7-15.7-110.2-14C88.6,59.7,39,75.8,39,75.8l1,5.3h0l0.7,35.3
	c11.5,13.9,0,23.2,0,23.2V336c-1.7,2.3,0.3,5.1,0.3,8.1s-1.9,5.8-0.3,8.1v32.5h19.9c3.3,3.1,7.8,1.6,12.7,1.6
	c4.9,0,9.4,1.6,12.7-1.6h180.5V284.6C250.4,274.2,266.8,260,266.8,260z M45.4,377.5V141.4c0,0,13.3-4.3,13.8-12.2
	c0.5-7.9-13.8-13.7-13.8-13.7V84.6c22.5-4.5,125.9-23,215.9-0.4v172.6c0,0-16.2,3.3-16.2,15.1s15.6,15.6,15.6,15.6v89.9H45.4z"/>
<path class="st5" d="M179.8,36.2c0,0,70.7-5.1,92.7-19c3.7,5.7,6.6,11.7,7.3,16.2l-9.6-8.4C270.1,25,239,34.2,179.8,36.2z"/>
<path class="st5" d="M25,37.3c0,0,3.1-9.2,5.9-12.8c10.3,5.5,72.6,13.8,93,12.8C88,41.7,33,29.8,33,29.8L25,37.3z"/>
<path class="st4" d="M28,60.1l3.8,10.8c0,0,55.3-16.9,123.6-16.9s115.8,13.6,115.8,13.6s7.2-7.5,7.2-13.6l-9.7,4
	c0,0-76.5-9.7-113-9.7S47.1,58.8,38.7,62.8c-6.3-3.7-12.2-8.5-12.2-8.5L28,60.1z"/>
<path class="st1" d="M222,318.5c-7.8,0-14.1,6.3-14.1,14.1c0,7.8,6.3,14.1,14.1,14.1c7.8,0,14.1-6.3,14.1-14.1
	C236.1,324.8,229.8,318.5,222,318.5z M222,339.6c-3.9,0-7-3.1-7-7c0-3.9,3.1-7,7-7c3.9,0,7,3.1,7,7C229,336.5,225.9,339.6,222,339.6
	z"/>
<path class="st1" d="M222.1,349.1c-3.9,0-7,3.1-7,7c0,3.9,3.1,7,7,7c3.9,0,7-3.1,7-7C229.1,352.2,225.9,349.1,222.1,349.1z
	 M222.1,359.6c-1.9,0-3.5-1.6-3.5-3.5c0-1.9,1.6-3.5,3.5-3.5c1.9,0,3.5,1.6,3.5,3.5C225.6,358,224,359.6,222.1,359.6z"/>
<circle class="st1" cx="236.1" cy="318.5" r="3.5"/>
<g>
	<g>
		<path d="M29.9,79.1c15.6-3.3,30.8-8,46.4-11c16.1-3.1,32.3-5.4,48.6-6.8c31.6-2.7,63.5-2,95,2.2c18.1,2.4,36,6.1,53.7,10.8
			c2.3,0.6,3.2-2.9,1-3.5c-62.6-16.6-129.1-19.4-192.8-6.9C64.3,67.3,46,71.3,29.6,78.4C29.1,78.6,29.4,79.2,29.9,79.1L29.9,79.1z"
			/>
	</g>
</g>
<g>
	<g>
		<path d="M274,11c-15.6,3.3-30.8,8-46.4,11c-16.1,3.1-32.3,5.4-48.6,6.8c-31.6,2.7-63.5,2-95-2.2c-18.1-2.4-36-6.1-53.7-10.8
			c-2.3-0.6-3.2,2.9-1,3.5C91.9,36,158.4,38.7,222.1,26.2c17.5-3.4,35.8-7.3,52.2-14.5C274.7,11.6,274.4,10.9,274,11L274,11z"/>
	</g>
</g>
<g>
	<g>
		<path d="M29.6,78.6c-2.4-4.7-5.5-8.8-7.4-13.9c-1.9-5.2-2.9-10.7-2.8-16.2c0.2-11.2,4-21.4,11.1-30c1.3-1.5-0.8-3.7-2.2-2.2
			C20.6,24.9,17,36.3,17,47.8c0,10.4,3.7,24.4,12.3,31.1C29.5,79,29.7,78.8,29.6,78.6L29.6,78.6z"/>
	</g>
</g>
<g>
	<g>
		<path d="M274.1,11.7c2.4,4.7,5.5,8.8,7.4,13.9c1.9,5.2,2.9,10.7,2.8,16.2c-0.2,11.2-4,21.4-11.1,30c-1.3,1.5,0.8,3.7,2.2,2.2
			c7.8-8.5,11.4-20,11.4-31.4c0-10.4-3.7-24.4-12.3-31.1C274.2,11.4,274,11.5,274.1,11.7L274.1,11.7z"/>
	</g>
</g>
<g>
	<g>
		<path d="M23.5,24.3c-6.7,7.1-8.1,19.8-7.1,29c1,9.8,5.3,19.3,11.9,26.5c1.4,1.6,3.6-0.7,2.3-2.3c-6.1-7.4-10.1-15.8-11.2-25.3
			c-0.6-4.9-0.3-9.9,0.6-14.7c0.9-4.5,2.9-8.6,4-13C23.9,24.3,23.7,24.2,23.5,24.3L23.5,24.3z"/>
	</g>
</g>
<g>
	<g>
		<path d="M278.6,67.6c6.3-9.1,8.5-20,7.7-31c-0.7-8.8-3.4-20.7-11.5-25.7c-1.9-1.2-3.7,1.8-1.8,3c7.6,4.7,10.2,17.6,10.8,25.9
			C284.5,49.3,282.3,58.8,278.6,67.6C278.6,67.6,278.6,67.6,278.6,67.6L278.6,67.6z"/>
	</g>
</g>
<g>
	<g>
		<path d="M175,31.7c8,1.1,16.3,0.1,24.3-0.7c8.1-0.8,16.3-1.9,24.3-3.4c17.1-3.1,33.9-7.8,50.2-13.9c1.9-0.7,1.1-3.8-0.8-3.1
			c-15.7,5.9-31.8,10.7-48.3,14c-8.4,1.7-16.9,3-25.4,4c-8,0.9-16.3,0.8-24.3,2.3C174.6,30.9,174.6,31.6,175,31.7L175,31.7z"/>
	</g>
</g>
<g>
	<g>
		<path d="M143.3,57.8c-19.2-0.4-38.3,1.7-57.2,5c-19.3,3.4-38.8,7.9-57.2,14.5c-1.8,0.7-1.1,3.5,0.8,2.9
			C47.9,74.4,66.1,69,84.9,65.4C104.2,61.7,123.7,59.7,143.3,57.8C143.3,57.8,143.3,57.8,143.3,57.8L143.3,57.8z"/>
	</g>
</g>
<g>
	<g>
		<path d="M43.1,117.4c0.1-13.7,0.1-27.3,0-41c0-2.3-3.5-2.3-3.5,0c0.1,13.7,0.1,27.3,0,41C39.6,119.7,43.1,119.7,43.1,117.4
			L43.1,117.4z"/>
	</g>
</g>
<g>
	<g>
		<path d="M43.1,384.7c0.1-81,0.1-162,0-243c0-2.3-3.5-2.3-3.5,0c0.1,81,0.1,162,0,243C39.6,386.9,43.1,386.9,43.1,384.7L43.1,384.7
			z"/>
	</g>
</g>
<g>
	<g>
		<path d="M267.3,259.7c0.1-62.1,0.1-124.1,0-186.2c0-2.3-3.5-2.3-3.5,0c0.1,62.1,0.1,124.1,0,186.2
			C263.7,262,267.3,262,267.3,259.7L267.3,259.7z"/>
	</g>
</g>
<g>
	<g>
		<path d="M267.3,384.7c0.1-33,0.1-66.1,0-99.1c0-2.3-3.5-2.3-3.5,0c0.1,33,0.1,66.1,0,99.1C263.7,386.9,267.2,386.9,267.3,384.7
			L267.3,384.7z"/>
	</g>
</g>
<g>
	<g>
		<path d="M264.8,70.9c0,0.5,0,1,0.1,1.5c0.1,0.3,0.5,0.4,0.7,0.1c0.6-1.1-1.6-1.8-1.7-0.4c0.2-0.1,0.5-0.3,0.7-0.4
			c0.2,0.1-0.4,0.3-0.3,0.1c-0.2,0.5,0.4,1,0.8,0.6c0.7-0.6,0-1.8-0.9-1.5c-0.8,0.2-0.8,1.3-0.2,1.7c0.3,0.1,0.7,0,0.7-0.4
			c0-0.1-0.1,0.1-0.1,0.1c0,0,0.1,0,0.1,0c0,0,0.1,0,0.1,0c0.1,0,0,0.1,0-0.1c0.2,0,0.4,0.1,0.7,0.1c-0.1-0.5-0.4-0.9-0.6-1.3
			C265,70.7,264.8,70.8,264.8,70.9L264.8,70.9z"/>
	</g>
</g>
<g>
	<g>
		<path d="M265.4,71.2c-0.4,0.2-0.6,0.2-0.7,0.6c-0.1,0.2,0.1,0.4,0.4,0.4c0.4-0.1,0.5-0.3,0.6-0.7
			C265.8,71.3,265.6,71.1,265.4,71.2L265.4,71.2z"/>
	</g>
</g>
<g>
	<g>
		<path d="M40.8,386.2c9.2,1,18.7,0.5,27.9,0.5c9.3,0,18.6,0,27.9,0c18.6,0,37.3,0,55.9-0.1c18.6-0.1,37.3-0.4,55.9-0.3
			c9.3,0.1,18.6,0.1,27.9,0.2c9.3,0,18.7,0.6,27.9-0.4c1.7-0.2,1.7-2.4,0-2.6c-9.2-1-18.7-0.4-27.9-0.4c-9.3,0-18.6,0.1-27.9,0.2
			c-18.6,0.1-37.3-0.2-55.9-0.3c-18.6-0.1-37.3-0.1-55.9-0.1c-9.3,0-18.6,0-27.9,0c-9.3,0-18.7-0.5-27.9,0.5
			C38.9,383.4,38.9,386,40.8,386.2L40.8,386.2z"/>
	</g>
</g>
<g>
	<g>
		<path d="M41.1,118.3c0.3,3.1,3.6,5,4.3,8.1c1.4,5.7-2.8,9.9-5.9,14.2c-1.1,1.5,1.3,3.2,2.6,2c4.1-4.1,8.2-9.9,7.1-16
			c-0.6-3.5-3.8-8.8-7.9-8.4C41.2,118.2,41.1,118.2,41.1,118.3L41.1,118.3z"/>
	</g>
</g>
<g>
	<g>
		<path d="M47.4,126.4c0.1-1.1,0.3-1.8,0.1-3c-0.2-1-0.5-2.1-1.1-2.9c-1.1-1.7-2.7-3.4-4.6-4.1c-1.4-0.5-2.5,1.5-1.5,2.5
			c1.2,1.2,2.6,2.1,3.7,3.4c0.5,0.6,1,1.2,1.4,1.8c0.5,0.6,1.3,1.6,1.6,2.3C47.3,126.6,47.4,126.5,47.4,126.4L47.4,126.4z"/>
	</g>
</g>
<g>
	<g>
		<path d="M264.3,258.4c-4.9,3.9-9.5,9.3-8.8,16c0.5,5.2,4.8,10.6,9.6,12.6c1.1,0.4,2-1,1.5-1.9c-2.5-4-7.2-6.1-7.6-11.4
			c-0.3-5.4,3.9-9.6,7.7-12.8C268.4,259.3,266,257,264.3,258.4L264.3,258.4z"/>
	</g>
</g>
<g>
	<g>
		<path d="M218.8,385c2.6,1.7,5.7,1.5,8.8,1.6c4.2,0.1,8.3,0.1,12.5,0.1c8.2,0.1,16.8,0.7,25-0.2c2.2-0.2,2.2-3.2,0-3.4
			c-8.2-0.9-16.7-0.2-25-0.2c-3.8,0-7.7,0.1-11.5,0.1c-3.3,0-6.9-0.3-9.7,1.6C218.6,384.7,218.6,384.9,218.8,385L218.8,385z"/>
	</g>
</g>
<polygon points="19,45.3 37.1,42.2 19,40.5 "/>
<polygon points="268.7,42.9 285.3,46 285.2,37.3 "/>
<g>
	<g>
		<path d="M28.5,14.4c-10,6.7-14.8,21.7-14.9,33.2c-0.1,13.1,5.5,25.7,15,34.6c1.9,1.8,4.7-1.1,2.9-2.9c-8.7-8.3-14-19.7-14-31.8
			c0-5.8,1.3-11.6,3.7-17c2.4-5.4,6.1-9.5,9.4-14.3C31.2,15.2,29.6,13.6,28.5,14.4L28.5,14.4z"/>
	</g>
</g>
<g>
	<g>
		<path d="M29.6,82.3c1.9,0.4,3.8-0.2,5.6-0.8c1.8-0.6,3.8-1.3,5.2-2.5c1.5-1.3-0.1-3.6-1.9-3.2c-1.7,0.4-3.4,1.4-5,2.1
			c-1.6,0.6-3.2,0.9-4.5,2C28.1,80.6,28.6,82.1,29.6,82.3L29.6,82.3z"/>
	</g>
</g>
<g>
	<g>
		<path d="M29.4,82.2c0.6,0.4,1.5,0.3,2.2,0.2c-0.2-1.1-0.3-2.3-0.5-3.4c-0.6,0.2-1.1,0.3-1.7,0.5c-0.9,0.3-1.5,1.2-1.2,2.1
			c0.3,0.9,1.2,1.5,2.1,1.2c0.6-0.2,1.2-0.3,1.8-0.5c0.9-0.2,1.5-1.3,1.2-2.2c-0.3-1-1.2-1.4-2.2-1.2c-0.3,0-0.5,0.1-0.8,0.1
			c0.3,1.1,0.6,2.3,0.9,3.4c1-0.3,2-1.1,1.7-2.3c-0.3-1.2-1.6-1.4-2.6-1.1c-0.9,0.3-1.5,1.2-1.2,2.2c0.3,1,1.2,1.4,2.2,1.2
			c0.3,0,0.5-0.1,0.8-0.1c-0.3-1.1-0.6-2.3-0.9-3.4c-0.6,0.2-1.2,0.3-1.8,0.5c0.3,1.1,0.6,2.2,0.9,3.4c0.5-0.2,1.1-0.3,1.6-0.5
			c1-0.3,1.5-1.4,1.1-2.4c-0.4-0.9-1.6-1.4-2.5-0.8c-0.6,0.4-1.5,0.7-1.8,1.4C28.7,81.2,28.8,81.9,29.4,82.2L29.4,82.2z"/>
	</g>
</g>
<g>
	<g>
		<path d="M37.7,77.6c-2.8,5.5-1.2,13.6-1.2,19.6c0,6.8-1.1,14.7,0.8,21.3c0.4,1.4,2.4,1.4,2.8,0c1.8-6.6,0.7-14.5,0.8-21.3
			c0-5.9,1.5-14.1-1.2-19.6C39.3,76.9,38.1,76.9,37.7,77.6L37.7,77.6z"/>
	</g>
</g>
<g>
	<g>
		<path d="M37.8,117.5c0,0.2-0.1,0.3-0.1,0.5c-0.2,0.6,0,1.3,0.5,1.8c3.9,3.8,6.6,7,3.3,12.5c-1.6,2.7-3.7,5-4.9,7.9
			c-0.9,2.1,2.5,3.3,3.6,1.5c2.6-4.2,6.8-8.2,7.3-13.4c0.5-5-2.9-9.1-7.1-11.4c-0.5-0.3-1.3-0.4-1.8,0
			C38.3,117,37.9,117.2,37.8,117.5L37.8,117.5z"/>
	</g>
</g>
<g>
	<g>
		<path d="M28.6,17.5c15.2,5.6,31.8,8.5,47.8,11C92.1,31,108,32.6,124,33.2c32,1.3,64.1-1.1,95.6-7.2c18.2-3.5,36-8.3,53.6-14.2
			c2.5-0.9,1.4-4.9-1.1-4C211.1,28.5,145.6,34.5,82,25.2c-17.8-2.6-35-7.3-52.5-10.8C27.4,14,26.7,16.7,28.6,17.5L28.6,17.5z"/>
	</g>
</g>
<g>
	<g>
		<path d="M265.1,72.8c-0.4,3.6,5.8,4.8,8.3,5.1c2.3,0.3,2.3-3.4,0-3.6c-1-0.1-2-0.3-3-0.7c-0.4-0.1-0.8-0.3-1.3-0.5
			c-0.3-0.1-1.6-0.4-1.7-0.6C267.1,71.1,265.3,71.5,265.1,72.8L265.1,72.8z"/>
	</g>
</g>
<g>
	<g>
		<path d="M271.8,10.4c10.5,6.6,13.7,21,13.3,32.7c-0.4,12.3-5.5,22.7-12.8,32.2c-1.2,1.6,1.4,3.5,2.8,2.1
			c9.8-10,14.6-24.8,13.9-38.7c-0.5-9.1-4.3-30.3-16.4-31.1C271,7.7,270.6,9.7,271.8,10.4L271.8,10.4z"/>
	</g>
</g>
<g>
	<g>
		<path d="M268,75.9c-1.4,15.1-1,30.4-1.1,45.5c-0.1,15.3-0.2,30.7-0.2,46c-0.1,30.5-0.1,61-0.1,91.6c0,2.8,4.4,2.8,4.4,0
			c0-30.9-0.1-61.8-0.1-92.8c0-30.9,0.8-61.9-0.1-92.8c-0.1-2.5-3.9-2.5-4,0c-0.9,30.9-0.1,61.9-0.1,92.8c0,30.9-0.1,61.8-0.1,92.8
			c0,2.8,4.4,2.8,4.4,0c0-30.5,0-61-0.1-91.6c0-15-0.1-30-0.2-45c-0.1-15.5,0.4-31.1-1.1-46.5C269.5,74.9,268.1,74.9,268,75.9
			L268,75.9z"/>
	</g>
</g>
<g>
	<g>
		<path d="M268.6,285c1.3-3.7-2.4-4.4-4.4-6.6c-5.3-5.8,1.7-13.2,5.7-17.2c1.6-1.6-0.9-4.1-2.5-2.5c-3.9,3.9-8.2,8.3-8.4,14.1
			c-0.1,2.3,0.4,4.7,1.7,6.6c1.5,2.3,5.5,3.2,6.3,5.6C267.3,285.8,268.4,285.8,268.6,285L268.6,285z"/>
	</g>
</g>
<g>
	<g>
		<path d="M265.3,283c0,0.7,0.3,1.2,0.6,1.8c0.4,0.9,1.8,0.1,1.3-0.8c-0.3-0.5-0.5-1-1-1.4C265.9,282.3,265.2,282.5,265.3,283
			L265.3,283z"/>
	</g>
</g>
<g>
	<g>
		<path d="M267.1,386.9c1.7-7.7,1.3-16.1,1.5-23.9c0.2-8.9,0.2-17.9,0.2-26.8c0-17.4,1.1-35.2-0.2-52.6c-0.2-2.4-3.5-2.4-3.7,0
			c-1.2,17.4-0.2,35.2-0.2,52.6c0,8.6,0,17.2,0.2,25.8c0.2,8.1-0.3,16.9,1.5,24.9C266.6,387.2,267.1,387.2,267.1,386.9L267.1,386.9z
			"/>
	</g>
</g>
<g>
	<g>
		<path d="M40.6,387.8c8.4,1.7,17.6,1,26.2,1.1c9.3,0.1,18.6,0.1,27.9,0.2c19,0.1,37.9,0,56.9,0c18.6,0,37.3,0,55.9-0.1
			c9.3,0,18.6-0.1,27.9-0.1c9.6,0,19.4,0.5,28.9-0.3c1.9-0.2,1.9-2.8,0-3c-9.2-0.8-18.7-0.3-27.9-0.3c-9.3,0-18.6-0.1-27.9-0.1
			c-19,0-37.9-0.1-56.9-0.1c-18.6,0-37.3-0.1-55.9,0c-9.3,0.1-18.6,0.1-27.9,0.2c-8.9,0.1-18.4-0.7-27.2,1.1
			C39.9,386.5,39.9,387.7,40.6,387.8L40.6,387.8z"/>
	</g>
</g>
<g>
	<g>
		<path d="M265.8,386.7c0,0,0.4-0.2,0.2-0.2c-0.3-0.2-0.6-0.5-0.9-0.7c0,0.4-0.1,0.8,0,1.2c0,0.4,0.3,0.8,0.8,0.9
			c0.4,0,0.9-0.2,1-0.6c0.1-0.8,0.3-1.6,0.1-2.3c-0.1-0.6-1.1-0.8-1.4-0.2c-0.4,0.7-0.4,1.5-0.5,2.3c0.6-0.1,1.2-0.2,1.8-0.2
			c-0.1-0.4-0.3-0.7-0.4-1.1c-0.4-1.3-2.2,0.2-1,0.8c0,0,0,0,0.1,0c-0.1-0.1-0.2-0.2-0.2-0.3c0.1,0.2,0.1,0.4,0.3,0.5
			C265.7,386.8,265.8,386.8,265.8,386.7L265.8,386.7z"/>
	</g>
</g>
<g>
	<g>
		<path d="M265.5,386.5c-0.1,0.1-0.3,0.1-0.4,0.2c-0.6,0.1-0.6,1.1,0,1.2c0.7,0.2,1-0.6,0.6-1.1c0-0.1-0.1-0.2-0.1-0.3
			C265.6,386.5,265.5,386.5,265.5,386.5L265.5,386.5z"/>
	</g>
</g>
<g>
	<g>
		<path d="M39.6,232.1c1.1-15.1,0.6-30.3,0.7-45.4c0.1-15.1,0.2-30.2,0.2-45.4c-1.3,0-2.7,0-4,0c0.1,40.7-0.2,81.5-0.3,122.2
			c-0.1,20.2-0.1,40.4-0.2,60.6c-0.1,20.5-0.7,41.1,0.2,61.6c0.1,2.2,3.4,2.2,3.5,0c0.9-20.5,0.4-41.1,0.4-61.6
			c0.1-20.2,0.1-40.4,0.2-60.6c0.1-40.7,0.2-81.5,0.2-122.2c0-2.6-4-2.6-4,0c0,15.1-0.2,30.2-0.4,45.4c-0.2,15.1-0.9,30.3,0.1,45.4
			C36.4,234.3,39.4,234.3,39.6,232.1L39.6,232.1z"/>
	</g>
</g>
<g>
	<g>
		<path d="M38.8,386.1c0,0.4,0.3,0.5,0.6,0.7c0.2-0.3,0.4-0.6,0.6-1c-0.3-0.1-0.7-0.3-1-0.4c-0.1,0.4-0.2,0.8-0.3,1.3
			c0.4,0.1,0.8,0.2,1.3,0.3c0.9,0.2,1.3-1.2,0.4-1.4c-0.3-0.1-0.6-0.2-0.9-0.2c-0.1,0.5-0.1,1.1-0.2,1.6c0.5,0,1-0.1,1.4-0.1
			c0.9-0.1,1.3-1.5,0.2-1.7c-0.4-0.1-0.8-0.1-1.1-0.2c-0.2,0.6-0.3,1.2-0.5,1.8c0.5,0.1,1,0.1,1.6,0.2c0.5,0.1,1-0.1,1.2-0.7
			c0.1-0.5-0.2-1.1-0.7-1.2c-0.9-0.2-1.8-0.1-2.7,0.1c-0.8,0.2-1,1.4-0.2,1.8c0.7,0.3,1.4,0.5,2.2,0.6c1.3,0.1,1.2-1.9,0-2
			c-0.7-0.1-1.4-0.1-2.1-0.2c-1.2-0.1-1.3,1.6-0.3,2c0.9,0.3,1.9,0.4,2.9,0.3c1.3-0.2,1.4-2.2,0-2.1c-0.8,0-1.6,0.1-2.3,0.1
			c-1.4,0.1-1.4,2,0,2.1c0.9,0,1.8,0.1,2.7,0.2c1.4,0.1,1.3-2,0-2.1c-1-0.1-2-0.2-2.9-0.3c-1.2-0.1-1.4,1.8-0.3,2.1
			c1.4,0.3,3.1,0.8,4.5,0.5c1.1-0.2,1.1-1.9,0-2.1c-1.3-0.2-2.6-0.1-4-0.4c-0.1,0.7-0.2,1.4-0.3,2.1c1,0.1,2,0.2,2.9,0.4
			c0-0.7,0-1.4,0-2.1c-0.9-0.1-1.8-0.1-2.7-0.2c0,0.7,0,1.4,0,2.1c0.8,0,1.6-0.1,2.3-0.1c-0.1-0.7-0.2-1.4-0.3-2.1
			c-0.7,0.1-1.4,0-2-0.2c-0.1,0.7-0.2,1.3-0.3,2c0.7,0,1.4,0.1,2.1,0.1c0-0.7,0-1.3,0-2c-0.4,0-0.8-0.1-1.2-0.3
			c-0.1,0.6-0.2,1.2-0.2,1.8c0.6-0.2,1.3-0.2,1.9-0.1c0-0.7,0-1.3,0-2c-0.5,0-1.1-0.1-1.6-0.1c-1.2-0.1-1.2,1.7,0,1.8
			c0.4,0,0.8,0.1,1.2,0.1c-0.1-0.6-0.2-1.1-0.2-1.7c-0.5,0.1-0.9,0.2-1.4,0.3c-0.8,0.1-0.8,1.4,0,1.6c0.3,0,0.6,0.1,0.9,0.1
			c0.1-0.5,0.1-1,0.2-1.5c-0.4,0-0.9-0.1-1.3-0.1c-0.7,0-0.9,1.1-0.2,1.3c0.3,0.1,0.6,0.1,0.9,0.2c0.7,0.1,1-1,0.3-1.1
			C39.6,385.8,38.7,385.6,38.8,386.1L38.8,386.1z"/>
	</g>
</g>
<g>
	<g>
		<path d="M37,385.4c-0.1,0-0.2,0.1-0.3,0.1c-0.1,0.1-0.2,0.2-0.2,0.4c0.2,2.3,4.1,2.3,5.9,2.5c4.5,0.5,9.8,0.9,14.1-0.8
			c0.9-0.3,0.7-1.5-0.2-1.6c-3.2-0.3-6.5,0.3-9.7,0.2c-1.4,0-2.8-0.1-4.2-0.2C41.2,386.1,38.1,386.3,37,385.4
			C37.1,385.4,37,385.4,37,385.4L37,385.4z"/>
	</g>
</g>
</svg>
