<?xml version="1.0" encoding="utf-8"?>
<!-- Generator: Adobe Illustrator 22.0.0, SVG Export Plug-In . SVG Version: 6.00 Build 0)  -->
<svg version="1.1" id="Layer_1" xmlns="http://www.w3.org/2000/svg" xmlns:xlink="http://www.w3.org/1999/xlink" x="0px" y="0px"
	 viewBox="0 0 537.2 283.6" style="enable-background:new 0 0 537.2 283.6;" xml:space="preserve">
<style type="text/css">
	.st0{fill:#FAD59F;}
	.st1{opacity:0.25;}
	.st2{fill:#FFFFFF;}
</style>
<path class="st0" d="M99.7,96.2c0,0,0.5,90.3,0.8,107.5c0.3,17.2-21.3,80.4,65.6,72.3s89.8-19.6,148.4-24.6s150.3-4.8,165.5-5.7
	c15.2-1,40.7-13.5,49.4-39.5c8.6-26-9.1-46.1-36.2-39.9c-27.1,6.2-46.1,17.9-58.4,14.8c1.1-59.3,1.7-116.5-4.4-131.5
	c-6.1-15-17.3-52.9-67-44.1C313.6,14.4,246.1,29,183,32c-63.1,3-139-6.4-164.3,10.8C-6.5,60.1,2.1,94.5,22.1,98.5
	c20,4,31.9,5.2,51.4,1C92.9,95.3,99.7,96.2,99.7,96.2z"/>
<path class="st1" d="M335,46.5c0,0,26.3-2.2,44.1-10.5c9.6,21.4-6.5,31.7-13.6,34C358.6,72.4,339.2,66.1,335,46.5z"/>
<path class="st1" d="M431.6,204.9c0,0,5.1,45.8,53.2,40.2c48.1-5.6,53.6-59.4,42.8-66.9c-10.8-7.5-34-22.5-51.5,4.8
	c0,0-4.1,17.1,6.4,21.3C462.6,201.2,440.3,200.1,431.6,204.9z"/>
<path class="st1" d="M495.5,202.2l-20-5.4C475.4,196.8,483.4,210.6,495.5,202.2z"/>
<path class="st1" d="M432.9,184.3l2.9-35l0.9-53.4l-7.2-21.1c0,0-1.1-68.3-46.4-69.7s-50.9,33.3-48,41.3c2.9,8.1,7.1,17.1,23.5,25.9
	l-50.6,4.7l-82.7,6.4L140,91.4l-34.8,4.1c-0.1-0.4-0.1-0.7-0.2-1.1l-5.3,1.8c0,0-1.4,31.2-1.8,100.3c-0.3,69.1,11.2,65.9,31,78.6
	c19.8,12.7,156.7-17.2,187.8-23.8c31.1-6.6,112.5-6.4,158.2-3C420.2,236.4,432.9,184.3,432.9,184.3z M427.7,234.8
	c-29.5-2-65.6,2.6-99.3,2.5c-33.7-0.2-122.7,25.2-167.9,30.9c-45.2,5.7-48.3-37.7-48.3-37.7l45.7-12.5c0,0-26.7-2.9-49.7-3.6
	c4.2-62.3,2.9-86.4,0.5-101.1c26-3.9,103.1-15.3,150.2-19.6c44.9-4,117.7-0.9,152.2-9.1l-30.4,16.1l41.4,0.5
	C422,101.1,413.5,216.4,427.7,234.8z"/>
<path class="st1" d="M20.2,78.6c0,0,8.7,13.8,22,13c13.4-0.8,120.6-11.2,149.7-13.9c29.1-2.7,119.2-10.6,139.2-12.7
	c-7-7.7-8.7-15.8-8.7-15.8S168.5,82.5,20.2,78.6z"/>
<path class="st2" d="M24.3,59.1c0,0,7.4-13,27-14.9c19.5-1.9,80.7-2.5,137.8-2.4C189.1,41.8,46.9,46.8,24.3,59.1z"/>
<path class="st2" d="M226.2,38.9c0,0,79-8.9,101.4-15.7c-5.3,9.7-2,3.4-5,9.1L226.2,38.9z"/>
<g>
	<g>
		<path d="M379,36.1c5.8,8.4,3.7,20-3.5,26.9c-8.3,8.1-20.5,6.8-28.9-0.5c-20.7-18-4.3-47.9,18.2-54.3c10.8-3.1,22.8-1.8,32.9,3.2
			c11,5.5,18.4,15.4,22.8,26.7c9.6,24.6,10.1,53.2,10.1,79.3c0,27.7-1.8,55.5,0,83.2c0.7,10.4,2.3,20.7,8.8,29.2
			c5.8,7.6,14.4,12.8,23.6,15.2c19.9,5.3,40.3-3.6,54-18.1c12.6-13.2,24.5-36,9.4-51.8c-12.4-12.9-35.7-13.7-47.7,0.1
			c-5.9,6.8-9.3,17.8-2.9,25.5c5.2,6.2,14.6,8.4,20.9,2.7c1.8-1.6-0.8-4.2-2.6-2.6c-4,3.5-9.7,2.4-13.6-0.7
			c-5.2-4.2-5.2-11.3-2.5-16.9c4.5-9.4,14.5-14.2,24.6-13.9c8.7,0.3,17.8,4.1,22.9,11.4c7.1,10.1,3,23-3,32.6
			c-11.9,18.8-34.3,33.4-57.2,28.1c-10.2-2.4-19.8-8.3-25.2-17.5c-6.7-11.3-6-26-6.3-38.6c-0.6-26.8,1-53.6,0.3-80.5
			c-0.6-23.5-2-49.3-11.6-71.1C414.6,15.4,397.7,3,377.2,3c-18.5-0.1-36.7,11.3-42.2,29.5c-5.7,18.6,8.6,42,29.7,39.3
			c15.5-1.9,26.5-23.8,14.6-35.9C379.1,35.8,378.9,36,379,36.1L379,36.1z"/>
	</g>
</g>
<g>
	<g>
		<path d="M98,96.6c5.8,38.8,2.1,78.1,2.7,117.1c0.3,15.8-0.5,34.2,10,47.2c9.5,11.7,25.1,17.1,39.9,15.6c2.2-0.2,2.2-3.7,0-3.5
			c-15.8,1.6-33-5.2-40.7-19.6c-4.4-8.2-4.9-17.9-5.3-27c-0.4-8.8-0.5-17.6-0.5-26.4c0.2-34.8,2.4-69.8-2.8-104.4
			C101.1,93.5,97.7,94.4,98,96.6L98,96.6z"/>
	</g>
</g>
<g>
	<g>
		<path d="M36.5,99.5c-10.7,1.3-21-5.4-26-14.7C5.3,74.9,7.5,63,13.8,54c9.9-14,27.3-17.6,43.6-17.4c2.3,0,2.3-3.5,0-3.5
			c-9.2-0.1-19,1.4-27.7,4.2c-9.7,3.2-17.9,11.3-22.2,20.4c-4.7,9.9-4.9,21.3,1.1,30.8c5.8,9.2,16.7,15.9,27.8,14.5
			C38.7,102.7,38.8,99.2,36.5,99.5L36.5,99.5z"/>
	</g>
</g>
<g>
	<g>
		<path d="M30.9,101.8c5.2,1,10.6,0.2,15.8-0.2c5.8-0.5,11.7-1,17.5-1.6c11.2-1.1,22.4-2.1,33.6-3.2c22.5-2.2,45-4.4,67.5-6.5
			c45.9-4.2,91.8-7.4,137.7-10.7c13.2-0.9,26.3-1.9,39.5-2.9c10.3-0.8,20.6-1.9,29.6-7.5c1.8-1.1,0.2-3.7-1.6-2.8
			c-9.5,4.8-20.1,5.7-30.6,6.4c-11.6,0.8-23.2,1.6-34.8,2.5c-22.4,1.6-44.7,3.2-67.1,4.9c-44.5,3.3-89,7.6-133.4,12
			c-12.1,1.2-24.3,2.5-36.4,3.7c-6.5,0.7-12.9,1.3-19.4,2c-6,0.6-12.2,0.8-17.8,3C30.5,101.1,30.4,101.7,30.9,101.8L30.9,101.8z"/>
	</g>
</g>
<g>
	<g>
		<path d="M44.4,35.5c21.4,3,43.8,1.6,65.4,1.3c22.1-0.3,44.1-1.1,66.2-2.4c43.5-2.5,87.6-5.7,130.5-14c11.5-2.2,23-4.8,34.4-7.2
			c11.2-2.4,22.5-4.4,33.5-7.4c1.7-0.5,0.9-2.8-0.7-2.5c-19.7,3.1-39.2,8-58.8,12c-21.5,4.4-43.2,7.5-65,9.8
			c-43.6,4.6-87.4,7.4-131.2,8.4C106.5,33.8,94.3,34,82.1,34c-12.5,0-25.1-0.6-37.6,0.5C44,34.5,43.8,35.4,44.4,35.5L44.4,35.5z"/>
	</g>
</g>
<g>
	<g>
		<path d="M132.1,273.1c9.8,2.8,18.9,3.5,29.1,3.2c10.1-0.3,20.3-1.5,30.3-3c22.6-3.6,45.1-8.6,67.6-12.6
			c46.6-8.3,93.4-14.2,140.8-14.7c26.7-0.3,53.4,0.8,80.1,1.5c2.3,0.1,2.2-3.4,0-3.5c-47-2.1-94.2-3-141,1.6
			c-45.6,4.5-90.7,13.3-135.7,22c-23.5,4.5-47.2,6.4-71.1,5.3C132,272.8,131.9,273,132.1,273.1L132.1,273.1z"/>
	</g>
</g>
<g>
	<g>
		<path d="M487.1,205.4c-8.5-0.5-16.6-4.5-25.2-5.3c-8.3-0.8-16.5,0-24.7,1.7c-1.8,0.4-1,3.2,0.7,2.7c8.4-2.3,17.1-3,25.7-2.2
			c7.9,0.7,15.5,3.5,23.4,3.2C487.2,205.5,487.2,205.4,487.1,205.4L487.1,205.4z"/>
	</g>
</g>
<g>
	<g>
		<path d="M431.6,205c9.1-0.8,18.4-1.8,27.6-1.7c9.4,0.1,18.3,2.2,27.5,3.4c1.7,0.2,1.8-2.3,0.4-2.8c-8.6-3.1-18.9-3.6-27.9-3.6
			c-9.6,0-18.6,1.2-27.6,4.5C431.5,204.8,431.5,205,431.6,205L431.6,205z"/>
	</g>
</g>
<g>
	<g>
		<path d="M486.8,205.3c-18-5.2-36-6.5-54.5-3.2c-2,0.4-1.2,3.4,0.8,3c17.6-3.7,36.1-3.9,53.6,0.3
			C486.9,205.4,486.9,205.3,486.8,205.3L486.8,205.3z"/>
	</g>
</g>
<g>
	<g>
		<path d="M432.9,185.2c22.7-0.9,44.7-11.1,66.5-16.7c2.2-0.6,1.3-3.9-0.9-3.4c-11.2,2.4-22,6.2-32.8,9.9c-10.9,3.6-21.7,6.4-33,8.5
			C431.7,183.6,431.9,185.2,432.9,185.2L432.9,185.2z"/>
	</g>
</g>
<g>
	<g>
		<path d="M473.9,195.8c5.6,5.1,15,5.4,22.2,6.5c2.7,0.4,2.7-3.6,0-3.2c-4.1,0.6-8.4,0-12.3-0.9c-3.2-0.7-6.4-2.3-9.6-2.7
			C473.9,195.4,473.7,195.6,473.9,195.8L473.9,195.8z"/>
	</g>
</g>
<g>
	<g>
		<path d="M497.3,200.2c0,0.4-0.5,0.7-0.7,1c-0.2,0.2-0.5,0.5-0.6,0.8c-0.4,0.8,0.5,1.4,1.2,0.9c0.3-0.3,0.5-0.8,0.5-1.2
			c0-0.2,0-0.4-0.1-0.6c-0.1-0.2-0.1-0.4-0.2-0.5C497.4,200.4,497.4,200.3,497.3,200.2C497.4,200.1,497.3,200.1,497.3,200.2
			L497.3,200.2z"/>
	</g>
</g>
<g>
	<g>
		<path d="M497.5,202.1c0.1-0.2,0.3-0.3,0.4-0.6c-0.4-0.2-0.8-0.3-1.2-0.5c-0.1,0.3-0.1,0.6-0.2,0.9c0.5,0,0.9,0,1.4,0
			c-0.1-0.5,0-0.9-0.4-1.3c-0.2-0.3-0.7-0.2-0.9,0.1c-0.2,0.4-0.2,0.8-0.1,1.2c0.1,1,1.6,0.8,1.4-0.2c0-0.2,0-0.3,0-0.5
			c0.1-0.7-1.1-0.9-1.2-0.2c-0.1,0.5,0.1,0.8,0.5,1.1C497.3,202.3,497.4,202.2,497.5,202.1L497.5,202.1z"/>
	</g>
</g>
<g>
	<g>
		<path d="M358.6,72.5c2.7-0.3,4.1,0.2,6.8-0.7c2.2-0.8,4.4-2,6.4-3.2c4-2.6,7.5-5.9,9.9-10c4.6-7.8,4.3-17.4-1.7-24.3
			c-0.9-1-2.5-0.6-3.2,0.4c-0.2,0.3-0.3,0.6-0.5,0.8c-0.7,1.2,0.5,3,1.9,2.5c0.3-0.1,0.6-0.2,0.9-0.3c-0.7-0.2-1.3-0.3-2-0.5
			c5.7,6.8,4.5,15.9-0.7,22.6c-2.3,3-5.3,5.3-8.6,7.2c-3,1.7-6.2,4-9.3,5.5C358.4,72.3,358.5,72.5,358.6,72.5L358.6,72.5z"/>
	</g>
</g>
<g>
	<g>
		<path d="M334.7,47.6c6.2,2.3,15.5-0.2,21.8-1.6c7.6-1.7,15-4.3,22.1-7.7c2.5-1.2,0.3-4.9-2.2-3.7c-6.8,3.2-13.7,5.7-21,7.4
			c-3.8,0.9-7.7,1.5-11.6,2c-3,0.4-6.2,0.2-9.1,1.4C333.7,45.9,333.7,47.2,334.7,47.6L334.7,47.6z"/>
	</g>
</g>
<g>
	<g>
		<path d="M32.8,68.7c-4.8,0-9.5,0.5-14.3,0.3c-4.2-0.2-8.7-0.4-12.8,0.8c-1.9,0.5-1.4,3.2,0.4,3.3c4.2,0.3,8.6-0.8,12.7-1.8
			C23.4,70.2,28.1,69.7,32.8,68.7C32.8,68.8,32.8,68.7,32.8,68.7L32.8,68.7z"/>
	</g>
</g>
<g>
	<g>
		<path d="M384.8,96.9C384.8,96.9,384.8,96.9,384.8,96.9C384.7,96.9,384.7,96.9,384.8,96.9L384.8,96.9z"/>
	</g>
</g>
<g>
	<g>
		<path d="M389.9,97c7.1-0.8,14.3-1.8,21.4-2.6c7.3-0.9,14.6-1.1,21.8-2.5c3.7-0.7,2.2-6.7-1.6-5.7c-7,1.8-13.6,4.6-20.6,6.4
			C404,94.3,396.9,95.7,389.9,97C389.9,97,389.9,97,389.9,97L389.9,97z"/>
	</g>
</g>
<g>
	<g>
		<path d="M151.9,219.9c-17.6,4.7-35.3-0.6-53.1,2.5c-3.4,0.6-2,6.1,1.5,5.3C117.2,224,135.2,225.2,151.9,219.9
			C151.9,219.9,151.9,219.9,151.9,219.9L151.9,219.9z"/>
	</g>
</g>
<g>
	<g>
		<path d="M8.9,53.6c-6.4,7.9-6.9,17.2-5.2,27c1.9,10.6,9.4,16.4,18.8,20.6c4.5,2,9,4,13.9,4.1c6.3,0.2,12.9-0.9,19.2-1.5
			c14.2-1.3,28.4-2.6,42.6-3.9c3.3-0.3,3.3-5.5,0-5.2c-11,1-21.9,2-32.9,3.1c-5.5,0.5-11,1-16.5,1.5c-5.3,0.5-11.2,1.7-16.5,0.3
			c-8.2-2.2-19-7-22.6-15.3c-3.5-8.1-4.7-22.5-0.5-30.5C9.5,53.6,9.1,53.3,8.9,53.6L8.9,53.6z"/>
	</g>
</g>
<g>
	<g>
		<path d="M49.8,98.9C37,101.3,21.6,98,13,87.7c-8.9-10.6-9-25.2-0.4-35.9c17.6-22.2,50.8-17.4,75.7-17.4
			c59.3,0.2,118.7-3.5,177.5-10.9c32.9-4.1,65.6-9.4,98.1-15.7c3-0.6,1.7-5.2-1.3-4.6c-64.7,12.7-130.3,20.8-196.2,24.4
			c-32.7,1.8-65.5,2.2-98.3,1.9c-23.7-0.2-54.3,3.1-64.3,28.7c-4.8,12.3-0.8,26.4,8.7,35.3c10.4,9.8,24.5,11.6,37.8,7.6
			C51.8,100.6,51.2,98.7,49.8,98.9L49.8,98.9z"/>
	</g>
</g>
<g>
	<g>
		<path d="M12.9,47.7c-19.8,12.7-15.4,41.9,3.7,53.2c24.9,14.8,54.3-0.3,80.8,0.6c3,0.1,3-4.6,0-4.7c-23.1-0.8-46.6,10.5-69.5,4
			C17,97.6,7.8,90,4.8,78.8C2,67.9,6,56.3,13,47.9C13.1,47.8,13,47.6,12.9,47.7L12.9,47.7z"/>
	</g>
</g>
<g>
	<g>
		<path d="M319.1,15.2c8.1-0.7,16-3.8,23.9-5.5c8.5-1.8,17.2-3.4,25.8-4.2c17.1-1.5,32.5,1.7,43.7,15.6
			c22.4,27.8,22.6,66.1,20.6,99.9c-0.6,10.1-1.2,20.1-1,30.2c0.2,10,0.4,19.9,0,29.9c-0.1,3.2,4.7,3.1,4.9,0
			c0.8-9.6,0.3-19.3,0.2-28.9c-0.2-9.8,0.3-19.5,1-29.2c1.2-18.9,1.8-38-1.3-56.8c-2.8-16.9-8.9-33.5-19.4-47.1
			C407.4,5.9,393.7-0.1,377.2,0c-9.4,0-18.9,1.6-28.1,3.5c-10,2-21.8,3.9-30.6,9.1C317.3,13.2,317.7,15.3,319.1,15.2L319.1,15.2z"/>
	</g>
</g>
<g>
	<g>
		<path d="M434.4,102.3c-0.1-17.1,1.2-33.9-6.2-49.9c-0.8-1.6-3.6-0.5-2.9,1.2c5.8,15.4,8,32.3,8.3,48.7
			C433.7,102.8,434.4,102.8,434.4,102.3L434.4,102.3z"/>
	</g>
</g>
<g>
	<g>
		<path d="M97.1,100c-1.1,38.3,0.6,76.8,1.2,115.1c0.2,15.3,0,32.1,9.1,45.1c7.7,11,20.2,17.6,33.2,20.3c16.4,3.4,33.2,0.4,49.2-3.4
			c17.8-4.1,35.5-8.4,53.4-12c36.2-7.2,72.8-12.4,109.6-15.1c41.1-3,82.4-2.8,123.5,0.4c3,0.2,3-4.5,0-4.7
			c-69.6-5.5-139.4-1.8-208.1,9.9c-17.3,2.9-34.5,6.4-51.6,10.2c-17.4,3.9-34.8,9.4-52.7,10.9c-15.1,1.3-31.1-0.9-43.6-10.2
			c-14-10.3-16.6-26.8-17-43.2c-1.1-41.1-0.2-82.4-2.7-123.4C100.4,97.7,97.1,97.7,97.1,100L97.1,100z"/>
	</g>
</g>
<g>
	<g>
		<path d="M149.6,276.6c6.5,3.5,16.8,2.6,23.6,0.5c1.8-0.6,1.1-3.2-0.8-2.8c-4,0.8-7.9,1.7-12,2.1
			C156.8,276.6,153.2,276,149.6,276.6C149.6,276.5,149.5,276.5,149.6,276.6L149.6,276.6z"/>
	</g>
</g>
<g>
	<g>
		<path d="M434.5,182.7c17.3,2.4,33.4-6.8,49.4-11.8c14.6-4.6,34.8-6.3,44.7,8.2c10.2,15.1,0.8,33.8-10,45.6
			c-5.4,5.9-11.6,11.2-18.6,15.1c-8,4.4-16.1,6-25.1,6.7c-1.7,0.1-2.3,2.9-0.4,3.2c12.9,2,26.2-4.2,36.3-11.9
			c10.8-8.4,21.3-20,25.1-33.5c3.4-11.9,1-25.8-9.1-33.8c-10.1-8-23.8-8.7-36-6c-9.1,2-17.7,5.8-26.5,8.9c-9.6,3.5-19.1,5.8-29.4,6
			C433.1,179.5,432.5,182.5,434.5,182.7L434.5,182.7z"/>
	</g>
</g>
<g>
	<g>
		<path d="M405.3,245.1c12.6-0.8,24.7,0.6,37.1,2.6c11.1,1.8,22.1,3.9,33.4,3.3c21.6-1.1,38.7-14,51.1-31c1.4-1.9-1.8-3.7-3.2-1.9
			c-6.4,8.6-14.1,16.5-23.4,21.9c-9.8,5.7-20.8,7.7-32.1,7.5C447.5,247.3,425.7,240,405.3,245.1
			C405.2,245.1,405.2,245.1,405.3,245.1L405.3,245.1z"/>
	</g>
</g>
<g>
	<g>
		<path d="M433.9,181c23.4,2,43.8-15.1,67.1-15.1c10.1,0,21.5,3.4,27.4,12.2c5.1,7.7,6.4,19.7-0.4,26.7c-1.8,1.8,1,4.7,2.8,2.8
			c6.5-6.7,7.1-16.8,4.1-25.3c-3.4-9.7-11.6-16-21.3-18.8c-11.9-3.4-24.3-0.9-35.8,2.8c-14.7,4.8-28.4,10.6-43.8,12.6
			C432.6,179,432.5,180.8,433.9,181L433.9,181z"/>
	</g>
</g>
<g>
	<g>
		<path d="M95.5,97.4c-0.9,9,0.5,18.4,0.9,27.5c0.4,9.2,0.7,18.4,0.7,27.5c0.1,18.1-0.6,36.1-1.8,54.2c-1.8,26.8-1.4,58.4,26.5,71.8
			c16.2,7.8,34.6,6.2,51.2,0.3c2.5-0.9,1.4-5-1.1-4.1c-15,5.3-31.8,7.2-46.7,0.7c-13.6-6-22-17.8-25-32.2
			c-2.7-13.3-1.5-27.1-0.7-40.5c1-16.7,1.5-33.4,1.3-50.1c-0.1-9.2-0.3-18.4-0.9-27.5c-0.5-9.1-0.5-18.9-3-27.7
			C96.7,96.3,95.6,96.6,95.5,97.4L95.5,97.4z"/>
	</g>
</g>
<g>
	<g>
		<path d="M103.9,252.3c-0.5,5.1,3.9,11.1,7.1,14.7c3.9,4.5,9.2,8.1,14.9,9.9c1.8,0.6,3.1-2.3,1.3-3.1c-5.3-2.2-9.9-4.9-14-9
			c-2.1-2.1-4-4.4-5.5-7c-1.1-1.9-1.9-4-3.3-5.7C104.1,252,103.9,252.1,103.9,252.3L103.9,252.3z"/>
	</g>
</g>
<g>
	<g>
		<path d="M143.9,281.6c20.3,2.1,41.2-1.9,61.1-5.5c20.8-3.8,41.4-8.1,62.3-11.5c42.3-6.9,84.9-11.4,127.7-13.6
			c24.1-1.2,48.2-0.9,72.3-1.5c2.3-0.1,2.3-3.5,0-3.6c-21.1-1-42.4,0-63.5,0.9c-21.2,0.9-42.3,2.4-63.3,4.5
			c-41.7,4.1-82.8,11-124,18.9c-11.4,2.2-22.9,4.4-34.4,6c-12.7,1.8-25.4,2.6-38.1,4C143.1,280.3,143.1,281.5,143.9,281.6
			L143.9,281.6z"/>
	</g>
</g>
<g>
	<g>
		<path d="M252,261.8c-1.2,0.2-2.5,0.4-3.7,0.7c-0.7,0.1-0.5,1.3,0.2,1.2c19.3-1.1,38.6-4.8,57.8-7.1c19.3-2.3,38.7-4.2,58-6
			c1.6-0.1,1.7-2.7,0-2.6c-19.7,1.6-39.4,3.5-59,5.9c-18.9,2.3-38.5,3.9-57,8.5c0.2,0.4,0.3,0.8,0.5,1.1
			C249.8,263,250.9,262.4,252,261.8C252,261.8,252,261.8,252,261.8L252,261.8z"/>
	</g>
</g>
</svg>
